<svg style="position: absolute; width: 0; height: 0;" width="0" height="0" version="1.1" xmlns="http://www.w3.org/2000/svg" xmlns:xlink="http://www.w3.org/1999/xlink">
<symbol id="add" viewBox="-0.5 -0.5 14 14"><path opacity=".7" fill="none" stroke="currentColor" stroke-width="2" stroke-miterlimit="10" d="M6.5-.5v14"/><path fill="none" stroke="currentColor" stroke-width="2" stroke-miterlimit="10" d="M13.5 6.5h-14"/></symbol>
<symbol id="admin" viewBox="-0.5 -0.5 42 42"><path fill="none" stroke="currentColor" stroke-width="2" stroke-miterlimit="10" d="M28.5 27.5h-12m-7-16l6 6-6 6"/></symbol>
<symbol id="anonymous-user-avatar" viewBox="0 0 18 18"><path fill="#999" fill-rule="evenodd" d="M10.48 11.79c-.046-.503-.028-.853-.028-1.311.227-.12.635-.88.704-1.523.178-.014.46-.188.543-.877.044-.37-.132-.578-.24-.643.29-.875.895-3.58-1.118-3.861-.207-.363-.737-.548-1.426-.548-2.757.052-3.09 2.083-2.485 4.409-.108.065-.285.273-.24.643.082.689.364.863.542.877.069.642.492 1.403.72 1.523 0 .458.017.808-.028 1.31-.546 1.467-4.226 1.055-4.397 3.884h11.834c-.17-2.829-3.835-2.417-4.38-3.884z"/><rect x=".25" y=".25" rx="2" ry="2" width="17.5" height="17.5" fill="none" stroke="#ccc" stroke-width=".5"/></symbol>
<symbol id="arrow-right" viewBox="199 56 11 17"><path fill="currentColor" fill-rule="evenodd" d="M199.6 58l1.6-1.6 8 8-.8.8-7.2 7.2-1.6-1.6 6.4-6.4z"/></symbol>
<symbol id="arrow2-left" viewBox="4 3.6 16 16"><path fill="currentColor" d="M18.973 10.77H7.503l5.012-5.012c.4-.4.4-1.057 0-1.458a1.023 1.023 0 00-1.448 0L4.3 11.067c-.4.4-.4 1.047 0 1.448l6.767 6.766a1.023 1.023 0 101.448-1.448l-5.011-5.01h11.47A1.03 1.03 0 0020 11.796a1.03 1.03 0 00-1.027-1.027z"/></symbol>
<symbol id="arrow2-right" viewBox="4 3.6 16 16"><defs><path id="a" d="M18.973 10.77H7.503l5.012-5.012c.4-.4.4-1.057 0-1.458a1.023 1.023 0 00-1.448 0L4.3 11.067c-.4.4-.4 1.047 0 1.448l6.767 6.766a1.023 1.023 0 101.448-1.448l-5.011-5.01h11.47A1.03 1.03 0 0020 11.796a1.03 1.03 0 00-1.027-1.027z"/></defs><use fill="currentColor" transform="matrix(-1 0 0 1 24 0)" xlink:href="#a"/></symbol>
<symbol id="arrow2-up" viewBox="0 0 18 18"><path fill="currentColor" fill-rule="evenodd" clip-rule="evenodd" d="M7.687 16.438V4.204L2.342 9.549a1.104 1.104 0 01-1.555 0 1.09 1.09 0 010-1.545L8.005.787a1.09 1.09 0 011.544 0l7.218 7.217a1.09 1.09 0 11-1.545 1.545L9.878 4.204v12.234c0 .602-.493 1.095-1.096 1.095a1.099 1.099 0 01-1.095-1.095z"/></symbol>
<symbol id="arrow3-down" viewBox="7 4 10 17"><path fill="currentColor" d="M12 20.8l4.5-4.8H13V4h-2v12H7.5z"/></symbol>
<symbol id="arrow3-up" viewBox="7 4 10 17"><path fill="currentColor" d="M12 4l4.5 4.8H13v12h-2v-12H7.5z"/></symbol>
<symbol id="attachment" viewBox="0 0 20 20"><path fill="currentColor" fill-rule="evenodd" d="M13.636 4.545V15A3.635 3.635 0 0110 18.636 3.635 3.635 0 016.364 15V3.636a2.274 2.274 0 014.545 0v9.546c0 .5-.409.909-.909.909s-.91-.41-.91-.91V4.546H7.728v8.637a2.274 2.274 0 004.546 0V3.636A3.635 3.635 0 008.636 0 3.635 3.635 0 005 3.636V15c0 2.764 2.236 5 5 5s5-2.236 5-5V4.545h-1.364z"/></symbol>
<symbol id="basic" viewBox="0 0 16 13"><g fill="none" fill-rule="evenodd"><path fill="currentColor" d="M3.59 7.61c1.02 1.016 2.434 1.47 4.244 1.36a.998.998 0 00.937-.937c.11-1.81-.343-3.224-1.36-4.242C6.39 2.773 4.976 2.319 3.166 2.43a.998.998 0 00-.937.937c-.11 1.81.343 3.224 1.36 4.242zm9.324-1.086c-.73.73-1.707 1.103-2.933 1.118a1 1 0 01-1.011-.989V6.63c.014-1.226.386-2.203 1.116-2.933s1.708-1.103 2.934-1.117a1 1 0 011.011.989v.022c-.014 1.226-.386 2.204-1.116 2.934z"/><path stroke="currentColor" stroke-linecap="round" stroke-width="2" d="M9 10v1.111"/></g></symbol>
<symbol id="basket" viewBox="0 0 10 12"><path fill="currentColor" d="M1.127 10.6a1.3 1.3 0 001.296 1.296h5.185A1.3 1.3 0 008.905 10.6V2.822H1.127V10.6zM9.553.878H7.284L6.636.23h-3.24l-.649.648H.48v1.296h9.074V.878z" clip-rule="evenodd" fill-rule="evenodd"/></symbol>
<symbol id="blacklist" viewBox="0 0 18 18"><path fill-rule="evenodd" clip-rule="evenodd" d="M6.672 6.869a2.369 2.369 0 114.737 0 2.369 2.369 0 01-4.737 0zM5.25 13.5h7.58-.474a3.316 3.316 0 00-6.632 0H5.25z" fill="currentColor"/><path fill-rule="evenodd" clip-rule="evenodd" d="M9 15A6 6 0 109 3a6 6 0 000 12zm0 1.5a7.5 7.5 0 100-15 7.5 7.5 0 000 15z" fill="currentColor"/><path fill-rule="evenodd" clip-rule="evenodd" d="M3.97 14.576a.75.75 0 010-1.06l9.546-9.546a.75.75 0 011.06 1.06L5.03 14.576a.75.75 0 01-1.06 0z" fill="currentColor"/></symbol>
<symbol id="book" viewBox="0 0 24 24"><path d="M3 8v13a2 2 0 002 2h14a2 2 0 002-2V8H3z" fill="#16a085"/><path d="M3 7v13c0 1.1.895 2 2 2h14c1.105 0 2-.9 2-2V7H3z" fill="#ecf0f1"/><path d="M3 6v13c0 1.1.895 2 2 2h14c1.105 0 2-.9 2-2V6H3z" fill="#bdc3c7"/><path d="M3 5v13c0 1.1.895 2 2 2h14c1.105 0 2-.9 2-2V5H3z" fill="#ecf0f1"/><path d="M5 1a2 2 0 00-2 2v18a2 2 0 002 2h2v-1H5.5a1.5 1.5 0 010-3H19a2 2 0 002-2V3a2 2 0 00-2-2H5z" fill="#16a085"/><path d="M8 1v18h11a2 2 0 002-2V3a2 2 0 00-2-2H8z" fill="#1abc9c"/></symbol>
<symbol id="bookmark-filled-space" viewBox="0 0 20 20"><path fill-rule="evenodd" clip-rule="evenodd" d="M13.889 3.333H6.48a1.48 1.48 0 00-1.474 1.482L5 16.667l5.185-2.223 5.185 2.223V4.815c0-.815-.666-1.482-1.481-1.482z" fill="currentColor"/></symbol>
<symbol id="bookmark-filled" viewBox="0 0 20 20"><path fill="currentColor" fill-rule="evenodd" d="M15.333 0H4.223A2.22 2.22 0 002.01 2.222L2 20l7.778-3.333L17.556 20V2.222C17.556 1 16.556 0 15.333 0"/></symbol>
<symbol id="bookmark-outlined-space" viewBox="0 0 20 20"><path fill-rule="evenodd" clip-rule="evenodd" d="M13.889 3.333H6.48a1.48 1.48 0 00-1.474 1.482L5 16.667l5.185-2.223 5.185 2.223V4.815c0-.815-.667-1.482-1.481-1.482zm0 11.111l-3.704-1.614-3.704 1.614v-9.63h7.408v9.63z" fill="currentColor"/></symbol>
<symbol id="bookmark" viewBox="0 0 20 20"><path fill="currentColor" fill-rule="evenodd" d="M15.333 0H4.223A2.22 2.22 0 002.01 2.222L2 20l7.777-3.333L17.555 20V2.222C17.555 1 16.555 0 15.333 0zm0 16.667l-5.556-2.423-5.555 2.423V2.222h11.11v14.445z"/></symbol>
<symbol id="calendar" viewBox="1 0 18 15.6"><path fill-rule="evenodd" clip-rule="evenodd" d="M3.7 2.8a.9.9 0 00-.9.9v9a.9.9 0 00.9.9h12.6a.9.9 0 00.9-.9v-9a.9.9 0 00-.9-.9H3.7zm0-1.8h12.6A2.7 2.7 0 0119 3.7v9a2.7 2.7 0 01-2.7 2.7H3.7A2.7 2.7 0 011 12.7v-9A2.7 2.7 0 013.7 1z" fill="currentColor"/><g stroke="currentColor" stroke-width="2" stroke-linecap="round"><path d="M3 6h12M6 1v2M14 1v2"/></g><g fill="currentColor"><path d="M5 9h2v2H5zM5 13h2v2H5zM9 9h2v2H9zM9 13h2v2H9zM13 9h2v2h-2zM13 13h2v2h-2z"/></g></symbol>
<symbol id="card" viewBox="0 0 48 48"><g fill="none" fill-rule="evenodd"><path fill="#CCC" d="M14.481 19.511L30.744 3.248l2.829 2.828-19.092 19.092a4 4 0 010-5.657z"/><path fill="#EAECF0" d="M14.458 19.5l6.364-6.364v5.657l-6.364 6.364a4 4 0 010-5.657z" opacity=".6"/><path fill="#5E5E5E" d="M46.726 16.472l-15.2-15.199a4.326 4.326 0 00-3.08-1.272 4.33 4.33 0 00-3.082 1.272L1.272 25.365A4.328 4.328 0 000 28.446c0 1.167.452 2.261 1.272 3.081l1.875 1.875 12.597 12.597H14a1 1 0 100 2h19.999a1 1 0 000-2H23.362l23.364-23.365a4.362 4.362 0 000-6.162zm-1.414 4.748L21.219 45.313a2.34 2.34 0 01-1.663.686h-.007a2.34 2.34 0 01-1.663-.686L5.268 32.695 3.854 31.28l-1.168-1.168A2.334 2.334 0 012 28.446c0-.632.244-1.224.686-1.667L26.778 2.687a2.344 2.344 0 011.667-.686 2.34 2.34 0 011.667.686l5.41 5.41-24.25 24.388a1.002 1.002 0 00.707 1.707.993.993 0 00.707-.293l24.25-24.388 8.376 8.375a2.36 2.36 0 010 3.334z"/><path fill="#6C6" d="M24.638 28.881a1.002 1.002 0 00-1.415 0l-7.868 7.869a1 1 0 001.414 1.414l7.869-7.869a1 1 0 000-1.414zM21.41 36.35l-3.227 3.228a1 1 0 001.414 1.414l3.227-3.227a1 1 0 00-1.414-1.414zm2.97-2.969l-.424.424a1 1 0 001.414 1.414l.424-.424a1 1 0 00-1.414-1.414z"/><path fill="#5E5E5E" d="M34.485 18.343a1.003 1.003 0 00-1.414 0 1 1 0 000 1.414l2.828 2.829a.998.998 0 001.414 0 1 1 0 000-1.414l-2.828-2.829zm3.77-2.355a1 1 0 10-1.414 1.414l2.828 2.828a.997.997 0 001.414 0 1 1 0 000-1.414l-2.828-2.828z"/></g></symbol>
<symbol id="cc" viewBox="0 0 30 30"><path fill="currentColor" d="M14.8 12.5l-2 1c-.2-.4-.5-.8-.8-.9-.3-.2-.6-.3-.9-.3-1.3 0-2 .9-2 2.6 0 .8.2 1.4.5 1.9s.8.7 1.5.7c.9 0 1.5-.4 1.8-1.3l1.8.9c-.4.7-.9 1.3-1.6 1.7-.7.4-1.5.6-2.3.6-1.3 0-2.4-.4-3.2-1.2-.8-.8-1.2-2-1.2-3.4s.4-2.6 1.2-3.4c.8-.8 1.9-1.3 3.1-1.3 2 .2 3.3 1 4.1 2.4zM23.5 12.5l-2 1c-.2-.4-.5-.8-.8-.9-.3-.2-.6-.3-.9-.3-1.3 0-2 .9-2 2.6 0 .8.2 1.4.5 1.9s.8.7 1.5.7c.9 0 1.5-.4 1.8-1.3l1.9.9c-.4.7-1 1.3-1.7 1.7-.7.4-1.5.6-2.3.6-1.4 0-2.4-.4-3.3-1.2-.8-.8-1.2-2-1.2-3.4s.4-2.6 1.2-3.4c.8-.8 1.9-1.3 3.1-1.3 2.1.2 3.4 1 4.2 2.4z"/><path fill="currentColor" d="M15 3c6.6 0 12 5.4 12 12s-5.4 12-12 12S3 21.6 3 15 8.4 3 15 3m0-3C6.7 0 0 6.7 0 15s6.7 15 15 15 15-6.7 15-15S23.3 0 15 0z"/></symbol>
<symbol id="cert" viewBox="0 0 34 27"><g transform="translate(1 1)" fill="transparent"><use xlink:href="#path0_fill"/><use xlink:href="#path1_stroke"/></g><use xlink:href="#path2_fill" transform="translate(26.6 20.125)" fill="currentColor"/><g transform="translate(1 1)"><use xlink:href="#path3_fill" fill="transparent"/><use xlink:href="#path4_stroke" fill="currentColor"/></g><defs><path id="path0_fill" fill-rule="evenodd" d="M31.926 19.125l.074-.073V0H0v25.5h25.535l.065-.064v-6.311h6.326z"/><path id="path1_stroke" d="M32 19.052l.353.354a.5.5 0 00.147-.354H32zM32 0h.5a.5.5 0 00-.5-.5V0zM0 0v-.5a.5.5 0 00-.5.5H0zm0 25.5h-.5a.5.5 0 00.5.5v-.5zm25.535 0v.5a.5.5 0 00.353-.146l-.353-.354zm.065-.064l.353.354a.5.5 0 00.147-.354h-.5zm0-6.311v-.5a.5.5 0 00-.5.5h.5zm6.68.354l.073-.073-.706-.708-.074.073.706.708zm.22-.427V0h-1v19.052h1zM32-.5H0v1h32v-1zM-.5 0v25.5h1V0h-1zM0 26h25.535v-1H0v1zm25.888-.146l.065-.064-.706-.709-.065.065.706.708zm.212-.418v-6.311h-1v6.31h1zm-.5-5.811h6.326v-1H25.6v1z"/><path id="path2_fill" fill-rule="evenodd" d="M6.4 0L0 6.375V0h6.4z"/><path id="path3_fill" fill-rule="evenodd" d="M32 19.052V3a3 3 0 00-3-3H3a3 3 0 00-3 3v19.5a3 3 0 003 3h22.535l.065-.064v-6.311h6.326l.074-.073z"/><path id="path4_stroke" d="M32 19.052l.353.354a.5.5 0 00.147-.354H32zM25.535 25.5v.5a.5.5 0 00.353-.146l-.353-.354zm.065-.064l.353.354a.5.5 0 00.147-.354h-.5zm0-6.311v-.5a.5.5 0 00-.5.5h.5zm6.326 0v.5a.5.5 0 00.354-.146l-.354-.354zm.574-.073V3h-1v16.052h1zM29-.5H3v1h26v-1zM-.5 3v19.5h1V3h-1zM3 26h22.535v-1H3v1zm22.888-.146l.065-.064-.706-.709-.065.065.706.708zm.212-.418v-6.311h-1v6.31h1zm-.5-5.811h6.326v-1H25.6v1zm6.68-.146l.073-.073-.706-.708-.074.073.706.708zM-.5 22.5A3.5 3.5 0 003 26v-1a2.5 2.5 0 01-2.5-2.5h-1zM3-.5A3.5 3.5 0 00-.5 3h1A2.5 2.5 0 013 .5v-1zM32.5 3A3.5 3.5 0 0029-.5v1A2.5 2.5 0 0131.5 3h1z"/></defs></symbol>
<symbol id="certs" viewBox="0 0 187 146"><defs><linearGradient x1="72.386%" y1="116.663%" x2="32.94%" y2="-3.801%" id="c"><stop stop-color="#E2FFE2" offset="0%"/><stop stop-color="#C9DCFF" offset="100%"/></linearGradient><linearGradient x1="113.421%" y1="96.826%" x2="-5.405%" y2="-47.665%" id="e"><stop stop-color="azure" offset="0%"/><stop stop-color="#EDF3FF" offset="100%"/></linearGradient><linearGradient x1="100%" y1="112.432%" x2="11.895%" y2="-.386%" id="d"><stop stop-color="#E2FFE2" offset="0%"/><stop stop-color="#C9DCFF" offset="100%"/></linearGradient><path id="a" d="M0 0h23.998v24H0z"/><path id="f" d="M0 0h23.998v24H0z"/></defs><g transform="translate(.572)" fill="none" fill-rule="evenodd"><circle fill="#FFF" cx="78.928" cy="73.5" r="72.5"/><g transform="rotate(-15 138.064 16.521)"><path d="M136.5 28.013V87.5a4 4 0 01-4 4H4.5a4 4 0 01-4-4v-83a4 4 0 014-4h128a4 4 0 014 4v23.513z" stroke="#FFF" stroke-width="4" fill="#6C7BDF" stroke-linecap="round" stroke-linejoin="round"/><rect fill-opacity=".8" fill="#FFF" x="10" y="46" width="76" height="6" rx="2"/><rect fill-opacity=".5" fill="#FFF" x="10" y="57" width="20" height="6" rx="2"/><g transform="translate(10 9)"><mask id="b" fill="#fff"><use xlink:href="#a"/></mask><path d="M19.011 14.853l-4 3.998a4.165 4.165 0 01-5.835-.052l1.945-1.95a1.408 1.408 0 002 0l3.948-3.94a1.43 1.43 0 00.412-1.001 1.414 1.414 0 00-2.414-1l-3.946 3.945a4.165 4.165 0 01-2.943 1.22 4.168 4.168 0 01-2.946-7.11L9.177 5.02a4.167 4.167 0 012.945-1.224 4.17 4.17 0 012.945 1.224l-1.946 1.942a1.416 1.416 0 00-2 0l-3.944 3.947a1.42 1.42 0 000 2 1.41 1.41 0 001.001.412c.392 0 .743-.157.999-.412l3.944-3.947a4.166 4.166 0 015.89 5.891m2.625-8.547l-3.947-3.944A7.982 7.982 0 0011.997 0C9.85 0 7.827.837 6.303 2.362L2.36 6.306A7.993 7.993 0 000 12a7.99 7.99 0 002.36 5.693l3.943 3.942A7.986 7.986 0 0011.997 24c2.091 0 4.077-.8 5.585-2.252l.01-.007.008-.01 4.036-4.038A7.993 7.993 0 0023.998 12c0-2.15-.838-4.172-2.362-5.694" fill="#FFF" mask="url(#b)"/></g><path d="M94.076 76.212c-2.596 1.536-4.542-2.091-.493-4.68 5.516-3.526 22.683-7.63 25.857-16.395.3-.827.587-2.137-.137-2.636-.48-.331-3.592 1.061-8.605 9.4-3.7 6.152-8.694 14.47-12.08 20.8m7.64-4.536c2.365-4.761 14.955-12.766 5.812-1.02-.692.89 1.33-1.959 2.041-2.692 1.566-1.614 2.884-2.326 4.152-2.887 1.94-.857 5.82-1.909 5.173.637" stroke="#000" stroke-linecap="round" stroke-width="2"/></g><g transform="translate(47.428 40)"><path d="M54.633-22H110a4 4 0 014 4v128a4 4 0 01-4 4H27a4 4 0 01-4-4V9.465a10 10 0 012.956-7.098L47.59-19.1a10 10 0 017.043-2.9z" stroke="url(#c)" stroke-width="4" fill="#FFF" stroke-linecap="round" stroke-linejoin="round" transform="rotate(90 68.5 46)"/><path d="M135 5.887V28a4 4 0 01-4 4h-22.9a4 4 0 01-2.778-6.877l22.9-22.114A4 4 0 01135 5.887z" stroke="url(#d)" stroke-width="4" fill-opacity=".25" fill="url(#e)" stroke-linecap="round" stroke-linejoin="round" transform="rotate(90 119.5 17)"/><rect fill="#282B41" x="10" y="46" width="76" height="6" rx="2"/><rect fill-opacity=".799" fill="#282B41" x="10" y="57" width="48" height="6" rx="2"/><g transform="translate(10 9)"><mask id="g" fill="#fff"><use xlink:href="#f"/></mask><path d="M19.011 14.853l-4 3.998a4.165 4.165 0 01-5.835-.052l1.945-1.95a1.408 1.408 0 002 0l3.948-3.94a1.43 1.43 0 00.412-1.001 1.414 1.414 0 00-2.414-1l-3.946 3.945a4.165 4.165 0 01-2.943 1.22 4.168 4.168 0 01-2.946-7.11L9.177 5.02a4.167 4.167 0 012.945-1.224 4.17 4.17 0 012.945 1.224l-1.946 1.942a1.416 1.416 0 00-2 0l-3.944 3.947a1.42 1.42 0 000 2 1.41 1.41 0 001.001.412c.392 0 .743-.157.999-.412l3.944-3.947a4.166 4.166 0 015.89 5.891m2.625-8.547l-3.947-3.944A7.982 7.982 0 0011.997 0C9.85 0 7.827.837 6.303 2.362L2.36 6.306A7.993 7.993 0 000 12a7.99 7.99 0 002.36 5.693l3.943 3.942A7.986 7.986 0 0011.997 24c2.091 0 4.077-.8 5.585-2.252l.01-.007.008-.01 4.036-4.038A7.993 7.993 0 0023.998 12c0-2.15-.838-4.172-2.362-5.694" fill="#000" mask="url(#g)"/></g><path d="M94.076 76.212c-2.596 1.536-4.542-2.091-.493-4.68 5.516-3.526 22.683-7.63 25.857-16.395.3-.827.587-2.137-.137-2.636-.48-.331-3.592 1.061-8.605 9.4-3.7 6.152-8.694 14.47-12.08 20.8m7.64-4.536c2.365-4.761 14.955-12.766 5.812-1.02-.692.89 1.33-1.959 2.041-2.692 1.566-1.614 2.884-2.326 4.152-2.887 1.94-.857 5.82-1.909 5.173.637" stroke="#000" stroke-linecap="round" stroke-width="2"/></g><g transform="translate(18.428 101)" stroke="#FFF" stroke-width="4"><circle fill="#6C6" cx="18" cy="18" r="18"/><path d="M11 17.232l2.745 2.7a3 3 0 004.207 0L25 13" stroke-linecap="round" stroke-linejoin="round"/></g></g></symbol>
<symbol id="check-green" viewBox="0 0 20 20"><path fill="#6C6" fill-rule="evenodd" d="M6.812 12.392l10.2-9.843a1 1 0 011.403.014l.87.873a1 1 0 01-.011 1.423L6.81 16.975.75 11.238a1 1 0 01-.017-1.436l.89-.884a1 1 0 011.381-.027l3.809 3.501z"/></symbol>
<symbol id="check-white" viewBox="0 0 20 20"><path fill="#fff" fill-rule="evenodd" d="M6.812 12.392l10.2-9.843a1 1 0 011.403.014l.87.873a1 1 0 01-.011 1.423L6.81 16.975.75 11.238a1 1 0 01-.017-1.436l.89-.884a1 1 0 011.381-.027l3.809 3.501z"/></symbol>
<symbol id="check" viewBox="0 0 20 20"><path fill="currentColor" fill-rule="evenodd" d="M6.812 12.392l10.2-9.843a1 1 0 011.403.014l.87.873a1 1 0 01-.011 1.423L6.81 16.975.75 11.238a1 1 0 01-.017-1.436l.89-.884a1 1 0 011.381-.027l3.809 3.501z"/></symbol>
<symbol id="checkmark-thin" viewBox="0 0 20 20"><path fill-rule="evenodd" clip-rule="evenodd" d="M7.644 14.302L4.752 11.41a.83.83 0 10-1.175 1.175L7.06 16.07a.83.83 0 001.175 0l8.817-8.817a.83.83 0 10-1.175-1.175l-8.233 8.225z" fill="currentColor"/></symbol>
<symbol id="chemical" viewBox="-399.5 318.5 42 42"><g fill="none" stroke="currentColor" stroke-width="2" stroke-miterlimit="10"><path d="M-382.5 332.5l4 4"/><path stroke-linecap="round" stroke-linejoin="round" d="M-368.5 339.5l-10 10m-5-21l-6 6m7-2l-3 3m7 1h8"/><path d="M-368.5 338.5c0-1.1-.9-2-2-2m-13-5.2c.8-.8.8-2 0-2.8m-6 6c.8.8 2 .8 2.8 0m1.2 1l4 4"/><path stroke-linecap="round" stroke-linejoin="round" d="M-379.5 349.5h1m10-11v1m-13 0v8"/><path d="M-379.5 349.5c-1.1 0-2-.9-2-2m0-2h7m-7-2h9m-9 4h5"/></g></symbol>
<symbol id="chevron-close" viewBox="0 0 15 15"><path fill-rule="evenodd" clip-rule="evenodd" d="M14.648.652A1.057 1.057 0 0013.151.64L7.92 5.782 2.767.549a1.057 1.057 0 10-1.509 1.486L6.41 7.267 1.178 12.42a1.057 1.057 0 101.485 1.509l5.233-5.152 5.151 5.232a1.057 1.057 0 101.51-1.485L9.403 7.29l5.233-5.152c.406-.4.412-1.08.011-1.486z" fill="currentColor"/></symbol>
<symbol id="chevron-down" viewBox="0 0 8 6"><path fill-rule="evenodd" clip-rule="evenodd" d="M3.495 4.838L.21 1.552A.713.713 0 111.22.542L4.004 3.32 6.78.543a.713.713 0 111.01 1.01L4.505 4.837a.713.713 0 01-1.01 0z" fill="currentColor"/></symbol>
<symbol id="chevron-right" viewBox="0 0 8 13"><path fill-rule="evenodd" clip-rule="evenodd" d="M7.221 7.293l-4.928 4.929a1.07 1.07 0 11-1.514-1.514L4.945 6.53.779 2.364A1.07 1.07 0 112.293.85L7.22 5.779a1.07 1.07 0 010 1.514z" fill="currentColor"/></symbol>
<symbol id="chevron-up" viewBox="0 0 8 6"><path fill="currentColor" d="M4.505.99L7.79 4.274a.714.714 0 11-1.01 1.01L3.996 2.507 1.22 5.284a.714.714 0 11-1.01-1.01L3.495.99a.713.713 0 011.01 0z" clip-rule="evenodd" fill-rule="evenodd"/></symbol>
<symbol id="choice" viewBox="0 0 42 42"><path fill="none" stroke="currentColor" stroke-width="2" stroke-miterlimit="10" d="M20 26l2 2 6-6"/><path fill="none" stroke="currentColor" stroke-width="2" stroke-miterlimit="10" d="M17 11h8v8h-8zm8 20h-8v-8h8z"/></symbol>
<symbol id="class-filled" viewBox="0 0 18 13"><path fill-rule="evenodd" clip-rule="evenodd" d="M1.126 8.398a.844.844 0 01-.844-.843V4.18a.844.844 0 011.688 0v3.375a.844.844 0 01-.844.843z" fill="currentColor"/><path fill-rule="evenodd" clip-rule="evenodd" d="M17.088 2.937c1.15.431 1.233 2.025.135 2.574L9.629 9.308a1.406 1.406 0 01-1.258 0L.777 5.511C-.32 4.962-.237 3.368.912 2.937L8.506.09a1.4 1.4 0 01.988 0l7.594 2.847z" fill="currentColor"/><path fill-rule="evenodd" clip-rule="evenodd" d="M2.535 7.795h-.002a.862.862 0 00-.001.04v2.072c0 .617.316 1.12.706 1.488.388.367.904.659 1.472.886C5.85 12.737 7.367 13 9 13s3.15-.263 4.29-.72c.568-.226 1.084-.518 1.472-.885a2.38 2.38 0 00.525-.704c.113-.235.181-.497.181-.784V7.796h-.004l-5.836 2.917a1.406 1.406 0 01-1.257 0L2.535 7.795z" fill="currentColor"/></symbol>
<symbol id="class" viewBox="0 0 18 13"><path fill-rule="evenodd" clip-rule="evenodd" d="M5.336 10.714c.896.358 2.19.599 3.664.599 1.473 0 2.768-.24 3.664-.599.45-.18.757-.373.939-.545.178-.168.178-.257.178-.262h1.687c0 .617-.316 1.12-.706 1.488-.388.367-.904.659-1.472.886-1.14.456-2.657.719-4.29.719s-3.15-.263-4.29-.72c-.568-.226-1.084-.518-1.472-.885-.39-.368-.706-.871-.706-1.488h1.687c0 .005 0 .094.178.262.182.172.49.365.94.545z" fill="currentColor"/><path fill-rule="evenodd" clip-rule="evenodd" d="M3.376 10.75a.844.844 0 01-.844-.843V6.43a.844.844 0 011.687 0v3.477a.844.844 0 01-.843.843zm11.248 0a.844.844 0 01-.843-.843V6.43a.844.844 0 111.687 0v3.477a.844.844 0 01-.844.843zM1.126 8.398a.844.844 0 01-.844-.843V4.18a.844.844 0 111.688 0v3.375a.844.844 0 01-.844.843z" fill="currentColor"/><path fill-rule="evenodd" clip-rule="evenodd" d="M15.891 4.29L9 1.707 2.109 4.291 9 7.736l6.891-3.445zm1.197-1.353c1.15.431 1.233 2.025.135 2.574L9.629 9.308a1.406 1.406 0 01-1.258 0L.777 5.511C-.32 4.962-.237 3.368.912 2.937L8.506.09a1.4 1.4 0 01.988 0l7.594 2.847z" fill="currentColor"/></symbol>
<symbol id="clock" viewBox="0 0 20 20"><g fill="currentColor" fill-rule="evenodd"><path d="M9.99 0C15.52 0 20 4.48 20 10S15.52 20 9.99 20C4.47 20 0 15.52 0 10S4.47 0 9.99 0zM10 18c4.42 0 8-3.58 8-8s-3.58-8-8-8-8 3.58-8 8 3.58 8 8 8z"/><path d="M11.657 9.243l-1.414 1.414L6 6.414A1 1 0 117.414 5l4.243 4.243z"/><path d="M10.313 10.73L8.899 9.314l3.535-3.535a1 1 0 111.414 1.414l-3.535 3.535z"/></g></symbol>
<symbol id="close-v2" viewBox="0 0 16 16"><path stroke="currentColor" stroke-width="2" d="M1 1l14 14m0-14L1 15"/></symbol>
<symbol id="close" viewBox="0 0 16 16"><path stroke="currentColor" stroke-width="2" d="M1 1l14 14m0-14L1 15"/></symbol>
<symbol id="code" viewBox="0 0 42 42"><g fill="none" stroke="currentColor" stroke-width="2" stroke-miterlimit="10"><path d="M18 29l-8-8 8-8M25 13l8 8-8 8"/></g></symbol>
<symbol id="communications-filled" viewBox="0 0 16 16"><path d="M15 13.68a1 1 0 01-1.756.654L10.357 11H4a3 3 0 01-3-3V4a3 3 0 013-3h8a3 3 0 013 3v9.68z" fill="currentColor" fill-rule="evenodd"/></symbol>
<symbol id="communications" viewBox="0 0 16 16"><path d="M12 1a3 3 0 013 3v9.79a1 1 0 01-1.753.657l-2.518-2.883H4a3 3 0 01-3-3V4a3 3 0 013-3h8zm0 2H4a1 1 0 00-.993.883L3 4v4.564a1 1 0 00.883.993L4 9.564h7.638L13 11.124V4a1 1 0 00-.883-.993L12 3z" fill="currentColor"/></symbol>
<symbol id="copy-a" viewBox="0 0 20 20"><path d="M16.667 1.667H8.333c-.919 0-1.666.747-1.666 1.666v3.334H3.333c-.919 0-1.666.747-1.666 1.666v8.334c0 .919.747 1.666 1.666 1.666h8.334c.919 0 1.666-.747 1.666-1.666v-3.334h3.334c.919 0 1.666-.747 1.666-1.666V3.333c0-.919-.747-1.666-1.666-1.666zm-13.334 15V8.333h8.334l.001 8.334H3.333zm13.334-5h-3.334V8.333c0-.919-.747-1.666-1.666-1.666H8.333V3.333h8.334v8.334z" fill="currentColor"/><path d="M4.96 15.833c.414 0 .647-.18.792-.611l.393-1.013h2.7l.393 1.026c.14.423.373.598.813.598.456 0 .782-.265.782-.639 0-.134-.026-.256-.098-.431L8.684 9.93c-.223-.53-.586-.764-1.197-.764-.59 0-.958.243-1.176.769l-2.04 4.827c-.068.166-.104.32-.104.431 0 .392.305.64.792.64zm1.527-2.676l.969-2.659h.036l.99 2.659H6.487z" fill="currentColor"/></symbol>
<symbol id="correct-settled" viewBox="0 0 24 24"><path d="M12 0C5.4 0 0 5.4 0 12s5.4 12 12 12 12-5.4 12-12S18.6 0 12 0zM9.6 18l-6-6 1.68-1.68 4.32 4.32 9.12-9.12L20.4 7.2 9.6 18z" fill="#6e7ed9" fill-rule="evenodd"/></symbol>
<symbol id="correct" viewBox="0 0 24 24"><path d="M12 0C5.4 0 0 5.4 0 12s5.4 12 12 12 12-5.4 12-12S18.6 0 12 0zM9.6 18l-6-6 1.68-1.68 4.32 4.32 9.12-9.12L20.4 7.2 9.6 18z" fill="#6c6" fill-rule="evenodd"/></symbol>
<symbol id="counter" viewBox="0 0 23 20"><path fill="none" stroke="currentColor" stroke-width="1.6" stroke-miterlimit="10" d="M10 19c-5 0-9-4-9-9s4-9 9-9 9 4 9 9"/><path fill="none" stroke="currentColor" stroke-width="1.6" stroke-miterlimit="10" d="M22 6l-3 4-4-3"/></symbol>
<symbol id="course-content-filled" viewBox="0 0 16 16"><path d="M1.2 3a1 1 0 00-.191.467L1 3.598V12l5.845.001.288.499a1 1 0 001.669.098l.065-.098.288-.499L15 12V3.593A.999.999 0 0014.805 3H15a1 1 0 011 1v8a1 1 0 01-1 1l-5.268.001a2 2 0 01-3.464 0L1 13a1 1 0 01-1-1V4a1 1 0 011-1h.2zm3.326-1c.66 0 1.32.194 1.981.583A1 1 0 017 3.445v6.892a1 1 0 01-1.32.947 3.579 3.579 0 00-2.356.013A1 1 0 012 10.35V3.456a1 1 0 01.504-.869C3.189 2.196 3.864 2 4.526 2zm7 0c.66 0 1.32.194 1.981.583a1 1 0 01.493.862v6.892a1 1 0 01-1.32.947 3.579 3.579 0 00-2.356.013A1 1 0 019 10.35V3.456a1 1 0 01.504-.869c.685-.391 1.36-.587 2.022-.587z" fill="currentColor" fill-rule="evenodd"/></symbol>
<symbol id="course-content" viewBox="0 0 16 16"><path d="M11.526 1c.846 0 1.68.245 2.489.721A2 2 0 0114.95 3H15a1 1 0 011 1v8a1 1 0 01-1 1l-5.268.001a2 2 0 01-3.464 0L1 13a1 1 0 01-1-1V4a1 1 0 011-1h.053a2 2 0 01.955-1.281C2.838 1.245 3.68 1 4.526 1c.846 0 1.68.245 2.489.721A2 2 0 018 3.445l.007-.154a2 2 0 011-1.572C9.838 1.245 10.682 1 11.527 1zm-7 1c-.663 0-1.337.196-2.022.587a1 1 0 00-.338.317L2.11 3a1 1 0 00-.11.456v6.895a1 1 0 00.986 1l.113-.005a.958.958 0 00.225-.05 3.69 3.69 0 011.202-.205l.233.008c.309.02.616.082.92.185a1 1 0 001.314-.83L7 10.337V3.445a1 1 0 00-.105-.446l-.057-.1a1 1 0 00-.33-.316C5.846 2.194 5.185 2 4.525 2zm7 0c-.663 0-1.337.196-2.022.587a1 1 0 00-.338.317L9.11 3a1 1 0 00-.11.456v6.895a1 1 0 00.986 1l.113-.005a.958.958 0 00.225-.05 3.69 3.69 0 011.202-.205l.233.008c.309.02.616.082.92.185a1 1 0 001.314-.83l.007-.117V3.445a1 1 0 00-.105-.446l-.057-.1a1 1 0 00-.33-.316C12.846 2.194 12.185 2 11.525 2z" fill="currentColor" fill-rule="evenodd"/></symbol>
<symbol id="course-difficulty-easy" viewBox="0 0 20 20"><g fill="none" fill-rule="evenodd"><rect fill="#6C6" y="10" width="3" height="10" rx="1"/><rect fill="#FFF" x="8" y="5" width="3" height="15" rx="1"/><rect fill="#FFF" x="16" width="3" height="20" rx="1"/></g></symbol>
<symbol id="course-difficulty-hard" viewBox="0 0 20 20"><g fill="#6c6" fill-rule="evenodd"><rect y="10" width="3" height="10" rx="1"/><rect x="8" y="5" width="3" height="15" rx="1"/><rect x="16" width="3" height="20" rx="1"/></g></symbol>
<symbol id="course-difficulty-normal" viewBox="0 0 20 20"><g fill="none" fill-rule="evenodd"><rect fill="#6C6" y="10" width="3" height="10" rx="1"/><rect fill="#6C6" x="8" y="5" width="3" height="15" rx="1"/><rect fill="#FFF" x="16" width="3" height="20" rx="1"/></g></symbol>
<symbol id="course-pack" viewBox="0 0 20 20"><path d="M1 3h8a2 2 0 012 2v10a2 2 0 01-2 2H1V3z" stroke="currentColor" stroke-width="1.75" fill="none"/><path d="M11 14.125a.875.875 0 000 1.75v-1.75zM4 1.875h9V.125H4v1.75zM14.125 3v10h1.75V3h-1.75zM13 14.125h-2v1.75h2v-1.75zM14.125 13c0 .621-.504 1.125-1.125 1.125v1.75A2.875 2.875 0 0015.875 13h-1.75zM13 1.875c.621 0 1.125.504 1.125 1.125h1.75A2.875 2.875 0 0013 .125v1.75z" fill="currentColor"/><path d="M15 4.125a.875.875 0 000 1.75v-1.75zM9 19h-.875v.875H9V19zm6-13.125h2v-1.75h-2v1.75zM18.125 7v10h1.75V7h-1.75zM17 18.125H9v1.75h8v-1.75zM9.875 19v-2.5h-1.75V19h1.75zm8.25-2c0 .621-.504 1.125-1.125 1.125v1.75A2.875 2.875 0 0019.875 17h-1.75zM17 5.875c.621 0 1.125.504 1.125 1.125h1.75A2.875 2.875 0 0017 4.125v1.75z" fill="currentColor"/><path fill-rule="evenodd" clip-rule="evenodd" d="M4 2a1 1 0 011-1h3a1 1 0 011 1v6.077c0 .51-.344.923-.77.923a.694.694 0 01-.48-.202l-.625-.6a.874.874 0 00-1.25 0l-.625.6c-.332.318-.816.254-1.081-.144A1.044 1.044 0 014 8.077V2z" fill="currentColor"/></symbol>
<symbol id="course-settings-filled" viewBox="1 1 16 16"><path d="M10.612 1a.8.8 0 01.76.544l.488 1.464a.8.8 0 00.92.528l1.504-.304a.801.801 0 01.856.384l1.6 2.768c.174.3.135.678-.096.936L15.62 8.472a.8.8 0 000 1.056l1.08 1.152c.231.258.27.636.096.936l-1.6 2.768a.8.8 0 01-.856.384l-1.504-.304a.8.8 0 00-.92.528l-.488 1.464a.8.8 0 01-.76.544h-3.2a.8.8 0 01-.8-.544l-.488-1.464a.8.8 0 00-.92-.528l-1.504.304a.801.801 0 01-.856-.384l-1.6-2.768a.8.8 0 01.08-.936l1.016-1.152a.8.8 0 000-1.056L1.38 7.32a.8.8 0 01-.08-.936l1.6-2.768a.798.798 0 01.8-.384l1.544.304a.8.8 0 00.92-.528l.448-1.464a.8.8 0 01.8-.544zm-1.6 6.4a1.6 1.6 0 100 3.2 1.6 1.6 0 000-3.2z" fill="currentColor" fill-rule="evenodd"/></symbol>
<symbol id="course-settings" viewBox="0 0 16 16"><path d="M14.62 8.528a.8.8 0 010-1.056l1.024-1.152a.801.801 0 00.096-.936l-1.6-2.768a.8.8 0 00-.856-.384l-1.504.304a.8.8 0 01-.92-.528L10.372.544A.8.8 0 009.612 0h-3.2a.8.8 0 00-.8.544l-.448 1.464a.8.8 0 01-.92.528L2.7 2.232a.8.8 0 00-.8.384L.3 5.384a.8.8 0 00.08.936l1.016 1.152a.8.8 0 010 1.056L.38 9.68a.8.8 0 00-.08.936l1.6 2.768a.8.8 0 00.856.384l1.504-.304a.8.8 0 01.92.528l.488 1.464a.8.8 0 00.8.544h3.2a.8.8 0 00.76-.544l.488-1.464a.8.8 0 01.92-.528l1.504.304a.801.801 0 00.856-.384l1.6-2.768a.801.801 0 00-.096-.936l-1.08-1.152zM13.428 9.6l.64.72-1.024 1.776-.944-.192a2.4 2.4 0 00-2.76 1.6l-.304.896H6.988l-.288-.912a2.4 2.4 0 00-2.76-1.6l-.944.192-1.04-1.768.64-.72a2.4 2.4 0 000-3.2l-.64-.72 1.024-1.76.944.192a2.4 2.4 0 002.76-1.6l.304-.904h2.048l.304.912a2.4 2.4 0 002.76 1.6l.944-.192 1.024 1.776-.64.72a2.4 2.4 0 000 3.184zM8.012 4.8a3.2 3.2 0 100 6.4 3.2 3.2 0 000-6.4zm0 4.8a1.6 1.6 0 110-3.2 1.6 1.6 0 010 3.2z" fill="currentColor" fill-rule="evenodd"/></symbol>
<symbol id="courses" viewBox="0 0 18 16"><path fill="currentColor" d="M5.728 8.949v.486c0 .733.417 1.153 1.13 1.153h4.201c.714 0 1.13-.42 1.13-1.153v-.486h5.782v4.713c0 1.673-.882 2.554-2.51 2.554H2.488c-1.635 0-2.517-.881-2.517-2.554V8.949h5.757zm5.74-8.933c1.486 0 2.314.722 2.378 2.245l.004.194v.651h1.611c1.563 0 2.438.805 2.506 2.357l.004.198v2.076h-18V5.661c0-1.614.872-2.483 2.332-2.55l.185-.005h1.604v-.65C4.092.865 4.92.08 6.305.02l.176-.004h4.987zm-.016 1.401H6.49c-.55 0-.853.27-.893.797l-.005.126v.766h6.76V2.34c0-.61-.305-.923-.899-.923z" fill-rule="evenodd"/></symbol>
<symbol id="dataset" viewBox="0 0 42 42"><g fill="none" stroke="currentColor" stroke-width="2" stroke-miterlimit="10"><path opacity=".7" d="M21 23.3V13"/><path d="M13 21l8 8 8-8"/></g></symbol>
<symbol id="delete-2" viewBox="0 0 12 12"><path d="M7.333 6L12 1.333 10.667 0 6 4.667 1.333 0 0 1.333 4.667 6 0 10.667 1.333 12 6 7.333 10.667 12 12 10.667z" fill="currentColor" fill-rule="evenodd"/></symbol>
<symbol id="diploma" viewBox="0 0 20 20"><g fill="currentColor" fill-rule="evenodd"><path d="M3 2a1 1 0 00-1 1v10a1 1 0 001 1h14a1 1 0 001-1V3a1 1 0 00-1-1H3zm0-2h14a3 3 0 013 3v10a3 3 0 01-3 3H3a3 3 0 01-3-3V3a3 3 0 013-3z"/><path d="M4.5 5.5a1 1 0 110-2h5a1 1 0 010 2h-5zM4.5 8.5a1 1 0 110-2h3a1 1 0 110 2h-3zM15.5 16a3.5 3.5 0 110-7 3.5 3.5 0 010 7zm0-2a1.5 1.5 0 100-3 1.5 1.5 0 000 3z"/><path d="M13 15h5v3.9a.77.77 0 01-1.25.6l-.625-.5a1 1 0 00-1.25 0l-.625.5a.77.77 0 01-1.25-.6V15z"/></g></symbol>
<symbol id="directly" viewBox="0 0 8 9"><path d="M3.262 8.51L5.53 5.64c.093-.121.2-.238.322-.35.121-.121.224-.215.308-.28v-.126c-.121.01-.275.023-.462.042-.187.01-.36.014-.518.014H.56V3.82h4.62c.159 0 .331.01.518.028.187.01.34.023.462.042v-.126a5.5 5.5 0 01-.28-.266 16.801 16.801 0 01-.35-.392L3.262.25h1.47L7.98 4.38 4.746 8.51H3.262z" fill="currentColor"/></symbol>
<symbol id="doublearrow-left" viewBox="0 0 14 12"><g fill="currentColor"><path d="M13.264 1.415L8.772 6l4.492 4.585L11.878 12 6 6l5.878-6z"/><path d="M7.264 1.415L2.772 6l4.492 4.585L5.878 12 0 6l5.878-6z"/></g></symbol>
<symbol id="down-arrow" viewBox="-0.475 -0.477 24 16"><path fill="none" stroke="currentColor" stroke-width="4" stroke-miterlimit="10" d="M1.525 1.523l10 10 10-10"/></symbol>
<symbol id="download-legacy" viewBox="0 0 28 28"><g fill="none" stroke="currentColor" stroke-width="4" stroke-miterlimit="10"><path d="M14 0v18M25 9L14 20 3 9M8 26h12"/></g></symbol>
<symbol id="download" viewBox="0 0 16 16"><path fill-rule="evenodd" clip-rule="evenodd" d="M12.8 9.067a.533.533 0 00-.533.533v2.133a.533.533 0 01-.534.534H4.267a.533.533 0 01-.534-.534V9.6a.533.533 0 00-1.066 0v2.133a1.6 1.6 0 001.6 1.6h7.466a1.6 1.6 0 001.6-1.6V9.6a.533.533 0 00-.533-.533zm-5.179.912c.051.048.11.086.176.112.13.057.277.057.406 0a.533.533 0 00.176-.112l2.133-2.134a.536.536 0 00-.757-.757L8.533 8.315V3.2a.533.533 0 00-1.066 0v5.115L6.245 7.088a.536.536 0 10-.757.757L7.621 9.98z" fill="currentColor"/></symbol>
<symbol id="dragndrop" viewBox="0 0 11 20"><path fill="none" stroke="currentColor" stroke-width="4" stroke-miterlimit="10" d="M0 2h4M0 10h4M0 18h4M7 2h4M7 10h4M7 18h4"/></symbol>
<symbol id="easy-quiz" viewBox="0 0 13 22"><path d="M4.288 15.495c0-1.311.162-2.356.488-3.135.325-.778.968-1.634 1.929-2.565.961-.931 1.57-1.594 1.826-1.989a3.49 3.49 0 00.591-1.951c0-.927-.229-1.634-.687-2.122-.459-.488-1.131-.732-2.018-.732-.848 0-1.53.24-2.048.717-.518.478-.776 1.127-.776 1.945H0c.02-1.745.614-3.125 1.782-4.14C2.95.508 4.495 0 6.417 0c1.98 0 3.526.503 4.635 1.508s1.663 2.41 1.663 4.214c0 1.606-.749 3.188-2.247 4.746l-1.819 1.789c-.65.739-.985 1.818-1.005 3.238H4.288zm-.252 4.598c0-.582.183-1.052.547-1.412.365-.36.858-.54 1.479-.54.63 0 1.128.185 1.493.555.365.37.547.835.547 1.397 0 .542-.177.995-.532 1.36-.355.365-.858.547-1.508.547s-1.15-.182-1.5-.547c-.35-.365-.526-.818-.526-1.36z" fill="currentColor" fill-rule="evenodd"/></symbol>
<symbol id="enterprise" viewBox="0 0 13 12"><path fill-rule="evenodd" clip-rule="evenodd" d="M2.182 4.452c.872.872 2.084 1.26 3.635 1.167a.857.857 0 00.803-.804c.095-1.551-.294-2.763-1.166-3.635C4.582.308 3.37-.08 1.819.014a.857.857 0 00-.804.803C.921 2.368 1.31 3.58 2.182 4.452zm8.304-.052c-.626.626-1.464.945-2.514.957a.857.857 0 01-.866-.847v-.02c.011-1.05.33-1.887.956-2.513.626-.626 1.464-.945 2.514-.957a.857.857 0 01.866.847v.02c-.012 1.05-.33 1.887-.956 2.513zM7.142 6.5c1.07.592 1.712 1.363 1.923 2.311.212.948-.042 1.918-.76 2.91a.675.675 0 01-.873.194c-1.072-.592-1.713-1.363-1.924-2.311-.212-.948.042-1.918.76-2.91.2-.276.575-.36.874-.194zM2.3 5.75c.864-.19 1.742-.008 2.633.548.401.25.524.779.274 1.18l-.01.017c-.576.878-1.296 1.412-2.16 1.603-.865.19-1.742.007-2.633-.548A.857.857 0 01.13 7.37l.01-.017C.715 6.475 1.435 5.941 2.3 5.75zm8.34-.321c-.721-.22-2.316.14-2.531.844-.042.37.324.84 1.224 1.213.867.36 2.588.282 2.802-.421.215-.703-.774-1.416-1.495-1.636z" fill="currentColor"/></symbol>
<symbol id="exam" viewBox="0 0 640 512"><path fill="currentColor" d="M622.34 153.2L343.4 67.5c-15.2-4.67-31.6-4.67-46.79 0L17.66 153.2c-23.54 7.23-23.54 38.36 0 45.59l48.63 14.94c-10.67 13.19-17.23 29.28-17.88 46.9C38.78 266.15 32 276.11 32 288c0 10.78 5.68 19.85 13.86 25.65L20.33 428.53C18.11 438.52 25.71 448 35.94 448h56.11c10.24 0 17.84-9.48 15.62-19.47L82.14 313.65C90.32 307.85 96 298.78 96 288c0-11.57-6.47-21.25-15.66-26.87.76-15.02 8.44-28.3 20.69-36.72L296.6 284.5c9.06 2.78 26.44 6.25 46.79 0l278.95-85.7c23.55-7.24 23.55-38.36 0-45.6zM352.79 315.09c-28.53 8.76-52.84 3.92-65.59 0l-145.02-44.55L128 384c0 35.35 85.96 64 192 64s192-28.65 192-64l-14.18-113.47-145.03 44.56z"/></symbol>
<symbol id="exclamation-filled" viewBox="0 0 18 18"><path fill-rule="evenodd" clip-rule="evenodd" d="M8.993 2.25A6.747 6.747 0 002.25 9a6.747 6.747 0 006.743 6.75A6.754 6.754 0 0015.75 9a6.754 6.754 0 00-6.757-6.75zm.007 3c.412 0 .75.338.75.75v3c0 .412-.338.75-.75.75A.752.752 0 018.25 9V6c0-.412.338-.75.75-.75zm-.75 6v1.5h1.5v-1.5h-1.5z" fill="currentColor"/></symbol>
<symbol id="exclamation" viewBox="2 2 20 20"><path fill="currentColor" fill-rule="evenodd" d="M12 7c.55 0 1 .45 1 1v4c0 .55-.45 1-1 1s-1-.45-1-1V8c0-.55.45-1 1-1zm-.01-5C6.47 2 2 6.48 2 12s4.47 10 9.99 10C17.52 22 22 17.52 22 12S17.52 2 11.99 2zM12 20c-4.42 0-8-3.58-8-8s3.58-8 8-8 8 3.58 8 8-3.58 8-8 8zm1-3h-2v-2h2v2z"/></symbol>
<symbol id="external-grader" viewBox="0 0 42 42"><g fill="none" stroke="currentColor" stroke-width="2" stroke-miterlimit="10"><path d="M18 29l-8-8 8-8M25 13l8 8-8 8"/></g></symbol>
<symbol id="external" viewBox="0 0 8 8"><path fill="currentColor" d="M6.4.55h-5v1h4.29L-.06 7.3l.71.71L6.4 2.26v4.29h1v-6z"/></symbol>
<symbol id="eye-off" viewBox="0 0 16 16"><path fill="currentColor" fill-rule="evenodd" d="M8.003 4.22a3.275 3.275 0 013.274 3.273c0 .426-.085.825-.235 1.199l1.912 1.912a7.742 7.742 0 002.246-3.11c-1.133-2.875-3.93-4.912-7.203-4.912-.917 0-1.794.164-2.607.459l1.415 1.414a3.19 3.19 0 011.198-.236zM1.455 2.431l1.794 1.794A7.732 7.732 0 00.8 7.493c1.133 2.875 3.93 4.912 7.203 4.912a7.712 7.712 0 002.869-.55l.274.275 1.92 1.912.83-.832L2.287 1.6l-.831.832zm3.621 3.62l1.015 1.016a1.842 1.842 0 00-.052.425c0 1.087.877 1.965 1.964 1.965.144 0 .288-.02.426-.053l1.015 1.016a3.25 3.25 0 01-1.44.347 3.275 3.275 0 01-3.275-3.275c0-.517.131-1.001.347-1.44zm2.822-.51l2.063 2.063.013-.105A1.962 1.962 0 008.01 5.536l-.112.006z"/></symbol>
<symbol id="eye" viewBox="0 0 16 12"><path fill-rule="evenodd" d="M8 4.25a2 2 0 01-2 2 2 2 0 102-2zm0-4c-4.102 0-8 4.648-8 6s3.898 6 8 6 8-4.648 8-6-3.898-6-8-6zm0 10a4 4 0 110-8 4 4 0 010 8z" clip-rule="evenodd" fill="currentColor"/></symbol>
<symbol id="favorite-filled" viewBox="0 0 20 18"><path fill="currentColor" d="M11.354 17.13c-.76.69-1.93.69-2.69-.01l-.11-.1C3.304 12.27-.126 9.16.004 5.28c.06-1.7.93-3.33 2.34-4.29 2.64-1.8 5.9-.96 7.66 1.1 1.76-2.06 5.02-2.91 7.66-1.1 1.41.96 2.28 2.59 2.34 4.29.14 3.88-3.3 6.99-8.55 11.76l-.1.09z" fill-rule="evenodd"/></symbol>
<symbol id="favorite-outline" viewBox="0 0 20 18"><path d="M17.664.99c1.41.96 2.28 2.59 2.34 4.29.092 2.56-1.373 4.784-3.888 7.37l-.5.506-.259.256-.537.521-.852.804-1.214 1.12-1.4 1.274c-.76.69-1.93.69-2.69-.01l-1.438-1.304-.63-.577-.607-.561-.583-.548-.559-.536-.27-.263-.518-.518-.493-.51C1.255 9.868-.078 7.728.004 5.282c.06-1.7.93-3.33 2.34-4.29 2.64-1.8 5.9-.96 7.66 1.1 1.76-2.06 5.02-2.91 7.66-1.1zm-1.131 1.65c-1.55-1.063-3.602-.744-4.871.597l-.138.153-1.52 1.78-1.521-1.78c-1.251-1.465-3.4-1.846-5.014-.746-.868.59-1.428 1.625-1.467 2.704A5.336 5.336 0 002 5.6l.01.25c.016.249.052.495.111.743l.068.25c.075.25.175.505.304.768l.138.267c.024.045.05.09.076.136l.168.278.188.286.102.147.222.302.119.155.256.32.28.331.304.347.33.362.358.378.384.396.412.414.441.434.718.69.787.741.86.795 1.378 1.256 1.838-1.68 1.213-1.132.83-.795.548-.54.49-.498.437-.461.264-.29.244-.278.332-.398.2-.255.186-.248.172-.244.16-.24.15-.239.141-.239.133-.24c.476-.887.683-1.69.653-2.518a3.477 3.477 0 00-1.298-2.583l-.174-.128z" fill="currentColor" fill-rule="evenodd"/></symbol>
<symbol id="fill-blanks" viewBox="0 0 42 42"><g fill="none" stroke="currentColor" stroke-width="2" stroke-miterlimit="10"><path d="M11 23h17M31 22v2l-3 3M17 16l3 3 6-6"/></g></symbol>
<symbol id="filter-settings" viewBox="0 0 18 18"><path d="M8.105 2.25c-.497 0-.9.454-.9 1.013V3.6H3.609a.541.541 0 00-.232.049.599.599 0 00-.197.145.685.685 0 00-.133.22.75.75 0 000 .522.693.693 0 00.133.22.599.599 0 00.197.145c.074.034.153.05.232.049h3.598v.337c0 .56.402 1.013.899 1.013.496 0 .9-.454.9-1.013V3.263c0-.56-.404-1.013-.9-1.013zm2.098 1.35v1.35H14.4a.568.568 0 00.424-.198.72.72 0 00.176-.477.72.72 0 00-.176-.477.568.568 0 00-.424-.198h-4.197zm.9 3.375c-.497 0-.9.454-.9 1.013v.337H3.608a.541.541 0 00-.232.049.599.599 0 00-.197.145.685.685 0 00-.133.22.75.75 0 000 .522.693.693 0 00.133.22.599.599 0 00.197.145c.074.034.153.05.232.049h6.595v.337c0 .56.403 1.013.9 1.013.496 0 .9-.454.9-1.013V7.987c0-.558-.404-1.012-.9-1.012zm2.098 1.35v1.35h1.2a.568.568 0 00.423-.198A.72.72 0 0015 9a.72.72 0 00-.176-.477.568.568 0 00-.424-.198h-1.199zM5.107 11.7c-.496 0-.9.454-.9 1.013v.337h-.599a.541.541 0 00-.232.049.6.6 0 00-.197.145.684.684 0 00-.133.22.749.749 0 00.133.742.6.6 0 00.197.145c.074.034.153.05.232.049h.6v.338c0 .558.403 1.012.899 1.012s.9-.454.9-1.012v-2.025c0-.56-.404-1.013-.9-1.013zm2.099 1.35v1.35H14.4a.568.568 0 00.424-.198.72.72 0 00.176-.477.72.72 0 00-.176-.477.568.568 0 00-.424-.198H7.206z" fill="currentColor"/></symbol>
<symbol id="filter" viewBox="0 0 16 16"><path fill="currentColor" fill-rule="evenodd" d="M6.022 7.56c.167.183.26.422.26.669v7.276c0 .437.528.66.84.352l2.03-2.326c.272-.326.422-.487.422-.81v-4.49c0-.247.094-.486.26-.669l5.824-6.32A.741.741 0 0015.113 0H.743a.74.74 0 00-.545 1.243L6.022 7.56z"/></symbol>
<symbol id="filter2" viewBox="0 0 16 17"><path fill="currentColor" d="M15.111 0H.89A.888.888 0 000 .889V3.19c0 .465.19.922.518 1.25l4.815 4.816V16a.89.89 0 001.287.796l3.555-1.778a.89.89 0 00.492-.796V9.257l4.815-4.815c.329-.33.518-.786.518-1.25V.888A.888.888 0 0015.111 0zM9.15 8.26a.885.885 0 00-.26.629v4.784l-1.778.889V8.889a.885.885 0 00-.26-.629L1.778 3.191V1.778h12.445l.002 1.407L9.149 8.26z" fill-rule="evenodd"/></symbol>
<symbol id="flag-en" viewBox="0 0 18 19"><g clip-path="url(#clip0_2424_249)"><path stroke="#999" stroke-width=".5" d="M0 3.512h18v12H0z"/><g clip-path="url(#clip1_2424_249)"><path d="M0 3.512h18v12H0v-12z" fill="#fff"/><path d="M0 5.011h18v1.5H0v-1.5zm0 3h18v1.5H0v-1.5zm0 3h18v1.5H0v-1.5zm0 3h18v1.5H0v-1.5z" fill="#D80027"/><path d="M0 3.512h9v6.461H0V3.512z" fill="#2E52B2"/><path d="M3.51 6.159l-.146.445h-.468l.379.276-.145.446.38-.276.378.276-.144-.446.379-.276h-.469l-.145-.445zm.144 2.055l-.145-.446-.145.446h-.468l.379.275-.145.446.38-.275.378.275-.144-.446.379-.275h-.469zm-1.981 0l-.145-.446-.145.446H.914l.38.275-.146.446.38-.275.379.275-.145-.446.38-.275h-.47zm-.145-2.055l-.145.445H.914l.38.276-.146.446.38-.276.379.276-.145-.446.38-.276h-.47l-.144-.445zm1.981-1.61l-.145.446h-.468l.379.276-.145.446.38-.276.378.276-.144-.446.379-.276h-.469l-.145-.446zm-1.981 0l-.145.446H.914l.38.276-.146.446.38-.276.379.276-.145-.446.38-.276h-.47l-.144-.446zM5.49 6.16l-.145.445h-.469l.38.276-.146.446.38-.276.379.276-.145-.446.38-.276h-.47l-.144-.445zm.145 2.055l-.145-.446-.145.446h-.469l.38.275-.146.446.38-.275.379.275-.145-.446.38-.275h-.47zm1.981 0l-.145-.446-.145.446H6.86l.379.275-.145.446.38-.275.378.275-.144-.446.379-.275h-.469zm-.145-2.055l-.145.445H6.86l.379.276-.145.446.38-.276.378.276-.144-.446.379-.276h-.469l-.145-.445zm-1.981-1.61l-.145.446h-.469l.38.276-.146.446.38-.276.379.276-.145-.446.38-.276h-.47l-.144-.446zm1.981 0l-.145.446H6.86l.379.276-.145.446.38-.276.378.276-.144-.446.379-.276h-.469l-.145-.446z" fill="#F0F0F0"/></g></g><defs><clipPath id="clip0_2424_249"><path fill="#fff" transform="translate(0 .5)" d="M0 0h18v18H0z"/></clipPath><clipPath id="clip1_2424_249"><path fill="#fff" d="M0 3.512h18v12H0z"/></clipPath></defs></symbol>
<symbol id="flag-ru" viewBox="0 0 18 18"><path stroke="#999" d="M0 3.039h18v12H0z"/><g clip-path="url(#clip0_2424_237)"><g clip-path="url(#clip1_2424_237)"><path d="M0 3.039h18v4H0v-4z" fill="#fff"/><path d="M0 11.037h18v4.002H0v-4.002z" fill="#D52B1E"/><path d="M0 7.04h18v4H0v-4z" fill="#0039A6"/></g></g><defs><clipPath id="clip0_2424_237"><path fill="#fff" d="M0 0h18v18H0z"/></clipPath><clipPath id="clip1_2424_237"><path fill="#fff" d="M0 3.039h18v12H0z"/></clipPath></defs></symbol>
<symbol id="free-answer" viewBox="0 0 42 42"><path fill="none" stroke="currentColor" stroke-width="2" stroke-miterlimit="10" d="M23 13c1-1 2-1 3 0M29 16c1 1 1 2 0 3M12 25c0-1 1-2 2-2M14 30c-1 0-2-1-2-2"/><path fill="none" stroke="currentColor" stroke-width="2" stroke-linecap="round" stroke-linejoin="round" stroke-miterlimit="10" d="M29 16l-3-3"/><path fill="none" stroke="currentColor" stroke-width="2" stroke-linecap="round" stroke-miterlimit="10" d="M19 29l10-10M13 23l10-10M12 28v-3"/><path fill="none" stroke="currentColor" stroke-width="2" stroke-miterlimit="10" d="M17 30c1 0 2-.9 2-2"/><path fill="none" stroke="currentColor" stroke-width="2" stroke-linecap="round" stroke-miterlimit="10" d="M14 30h3"/><path fill="none" stroke="currentColor" stroke-width="2" stroke-miterlimit="10" d="M25 17l-9 9M28 21l-7-7M19 28l-5-5M12 26l4 4"/></symbol>
<symbol id="fullscreen-exit" viewBox="-0.519 -0.467 28 28"><path fill="none" stroke="currentColor" stroke-width="4" stroke-miterlimit="10" d="M7.48-.467v8h-8m28 0h-8v-8m0 28v-8h8m-28 0h8v8"/></symbol>
<symbol id="fullscreen" viewBox="0 0 28 28"><path d="M26 18v8h-8m-8 0H2v-8m0-8V2h8m8 0h8v8" fill="none" stroke="currentColor" stroke-width="4" stroke-miterlimit="10"/></symbol>
<symbol id="gift" viewBox="0 0 16 15"><path fill-rule="evenodd" clip-rule="evenodd" d="M9.252 1.76c-.103.104-.216.303-.318.607a5.705 5.705 0 00-.214.968c-.03.203-.05.398-.063.57.173-.013.368-.034.57-.063.334-.047.674-.116.969-.214.304-.101.503-.215.607-.318a1.096 1.096 0 00-1.55-1.55zm1.992 1.993l.184.184h-.001l-.183-.184zm1.13-1.217c0 .508-.165.999-.465 1.401h2.393c.662 0 1.198.537 1.198 1.198v2.292c0 .644-.508 1.17-1.146 1.197v4.532a1.198 1.198 0 01-1.198 1.198H2.844a1.198 1.198 0 01-1.198-1.198V8.624A1.198 1.198 0 01.5 7.427V5.135c0-.661.536-1.198 1.198-1.198H4.09A2.347 2.347 0 017.633.877l.002.001c.146.148.266.32.365.503.1-.183.22-.355.365-.503l.002-.002a2.347 2.347 0 014.006 1.66zM4.571 3.937h.001l.183-.184-.184.184zM1.75 5.187v2.188h5.625V5.187H1.75zm6.875 0v2.188h5.625V5.187H8.625zm-1.25 3.438h-4.48v4.479h4.48v-4.48zm1.25 4.479v-4.48h4.48v4.48h-4.48zm-2.82-9.476c-.305-.101-.504-.215-.608-.318a1.097 1.097 0 011.55-1.55c.104.104.218.303.319.607.097.294.167.634.214.968.03.203.05.398.063.57a9.527 9.527 0 01-.57-.063 5.705 5.705 0 01-.969-.214z" fill="currentColor"/></symbol>
<symbol id="globe" viewBox="0 0 18 18"><path fill="currentColor" d="M8.526 0A8.526 8.526 0 11.014 9.01L0 9l.012-.01A8.526 8.526 0 018.526 0zM4.65 9.62H1.394a7.221 7.221 0 005.755 5.99c-1.378-2.043-2.214-4.04-2.5-5.99zm11.009 0h-3.147c-.284 1.942-1.114 3.93-2.482 5.963A7.22 7.22 0 0015.66 9.62zm-4.475 0H5.978c.317 1.9 1.23 3.883 2.749 5.951l-.146-.203.1-.138c1.372-1.945 2.203-3.815 2.503-5.61zM7.01 1.472l-.137.03a7.217 7.217 0 00-5.56 7.024l.003-.219h3.226l-.002-.194c0-2.36.83-4.579 2.47-6.64zm3.167.03l.012.016c1.617 2.049 2.435 4.252 2.435 6.595l-.004.194h3.119a7.218 7.218 0 00-5.562-6.806zm-1.596.146l-.131.147C6.709 3.78 5.85 5.878 5.85 8.113c0 .065 0 .13.002.194h5.456a8.77 8.77 0 00.002-.194c0-2.235-.858-4.334-2.598-6.318l-.133-.147z"/></symbol>
<symbol id="hard-quiz" viewBox="0 0 22 22"><defs><filter x="-50%" y="-50%" width="200%" height="200%" filterUnits="objectBoundingBox" id="a"><feOffset dy="1" in="SourceAlpha" result="shadowOffsetOuter1"/><feGaussianBlur stdDeviation="1" in="shadowOffsetOuter1" result="shadowBlurOuter1"/><feColorMatrix values="0 0 0 0 0 0 0 0 0 0 0 0 0 0 0 0 0 0 0.137115036 0" in="shadowBlurOuter1" result="shadowMatrixOuter1"/><feMerge><feMergeNode in="shadowMatrixOuter1"/><feMergeNode in="SourceGraphic"/></feMerge></filter></defs><g transform="translate(-438 -328)" fill="none" fill-rule="evenodd"><path fill="currentColor" filter="url(#a)" d="M65.5 286h1081v750H65.5z"/><rect fill="currentColor" x="438" y="328" width="22" height="22" rx="3"/><path d="M442 346h14" stroke="var(--icon-line-color, #d8d8d8)" stroke-width="2"/><path d="M442.243 333l4.242 4.243h0l-4.242 4.242" stroke="var(--icon-line-color, #d8d8d8)" stroke-width="2" stroke-linecap="round"/></g></symbol>
<symbol id="home-filled" viewBox="0 0 18 18"><path fill-rule="evenodd" clip-rule="evenodd" d="M4 18H1.895A1.897 1.897 0 010 16.105V7.58c0-.251.1-.493.278-.67L7.856.278c.37-.37.97-.37 1.34 0l7.579 6.631a.945.945 0 01.277.67v8.526c0 1.045-.85 1.895-1.894 1.895H13v-6a3 3 0 00-3-3H7a3 3 0 00-3 3v6zm7 0v-6a1 1 0 00-1-1H7a1 1 0 00-1 1v6h5z" fill="currentColor"/><path d="M4 16h2v2H4v-2zm7 0h2v2h-2v-2z" fill="currentColor"/></symbol>
<symbol id="home" viewBox="0 0 18 18"><path d="M1.895 18h13.263c1.045 0 1.894-.85 1.894-1.895V7.58a.95.95 0 00-.277-.67L9.196.278a.946.946 0 00-1.34 0L.278 6.909A.945.945 0 000 7.58v8.526C0 17.15.85 18 1.895 18zm0-10.029l6.631-5.684 6.632 5.684v8.134H1.896V7.971z" fill="currentColor"/><path fill-rule="evenodd" clip-rule="evenodd" d="M4 12a3 3 0 013-3h3a3 3 0 013 3v6h-2v-6a1 1 0 00-1-1H7a1 1 0 00-1 1v6H4v-6z" fill="currentColor"/></symbol>
<symbol id="html" viewBox="0 0 42 42"><path d="M14.068 24.174l-.958.967-5.906-4.931 5.906-4.93.958.975-4.79 3.937 4.79 3.982zM24.564 12.58L18.535 26.89h-1.459l6.03-14.309h1.458zm3.403 3.674l.95-.976 5.906 4.931-5.906 4.93-.95-.966 4.79-3.946-4.79-3.973z" fill="currentColor" fill-rule="nonzero"/></symbol>
<symbol id="img-placeholder" viewBox="0 0 56 42"><path fill-rule="evenodd" clip-rule="evenodd" d="M54.052.933H1.948c-.538 0-.974.418-.974.934v38.266c0 .516.436.934.974.934h52.104c.538 0 .974-.418.974-.934V1.867c0-.516-.436-.934-.974-.934zM1.948 0C.872 0 0 .836 0 1.867v38.266C0 41.164.872 42 1.948 42h52.104C55.128 42 56 41.164 56 40.133V1.867C56 .836 55.128 0 54.052 0H1.948z" fill="currentColor"/><path d="M53.2 39.2H2.8V27.3l17.126-11.9 14.435 14.7 7.34-7.233L53.2 31.5v7.7zM43.146 10.617a2.917 2.917 0 11-5.833 0 2.917 2.917 0 015.833 0z" fill="currentColor"/></symbol>
<symbol id="info-flag" viewBox="0 0 14 22"><path d="M0 1.991C0 .891.897 0 2.006 0h9.988C13.102 0 14 .89 14 1.991V20.01c0 1.1-.684 1.41-1.519.701L7 16.054 1.519 20.71c-.839.713-1.519.4-1.519-.7V1.99z" fill="currentColor"/></symbol>
<symbol id="info-robot" viewBox="0 0 34 34"><g transform="translate(1 1)" stroke="#263238" fill="none" fill-rule="evenodd" stroke-linecap="round" stroke-linejoin="round"><path d="M2.962 24.477c-.06-2.762-.084-7.24 0-10.002l.047-1.137c.152-2.757 2.48-5.375 5.215-5.761l2.814-.3c2.75-.131 7.213-.184 9.978.009l2.362.259c2.72.442 5.091 3.025 5.262 5.785l.058 1.151c.074 2.759.103 7.231 0 9.99l-.058 1.15c-.187 2.754-2.544 5.415-5.26 5.834l-2.559.294c-2.75.139-7.211.197-9.976 0l-2.654-.304c-2.71-.463-5.043-3.064-5.182-5.831l-.047-1.137z" fill="#76B6FF"/><ellipse fill="#FFF" cx="9.663" cy="14.88" rx="2.376" ry="2.4"/><ellipse fill="#FFF" cx="22.02" cy="14.88" rx="2.376" ry="2.4"/><rect fill="#FFF" x="9.505" y="24.32" width="12.673" height="3.2" rx="1.6"/><path d="M12.5 24.32v3.216m3-3.216v3.216m3-3.216v3.216m-3-20.652V3.353" fill="#E2F3FB"/><ellipse fill="#E2F3FB" cx="15.842" cy="1.6" rx="1.584" ry="1.6"/><path d="M15.5 15.04v6.4" fill="#E2F3FB"/><path d="M2.945 14.403a1.956 1.956 0 00-.112-.003H1.92A1.92 1.92 0 000 16.32v2.56c0 1.064.86 1.92 1.92 1.92h.937a134.58 134.58 0 01.087-6.397h0zm25.887 0l.111-.003h.914c1.059 0 1.92.86 1.92 1.92v2.56c0 1.064-.86 1.92-1.92 1.92h-.938a134.58 134.58 0 00-.087-6.397h0z" fill="#DBA3FF"/></g></symbol>
<symbol id="info2" viewBox="0 0 30 30"><g transform="translate(1 1)" fill="none" fill-rule="evenodd"><path d="M15.065 19.186c-.47 1.974 1.459-.43 1.86.48.266.602-1.557 1.855-2.865 2.807 0 0-.673.467-1.134.465-.041.02-.066.03-.066.03l.002-.03a1.44 1.44 0 01-.293-.045l-.145-.037c-.804-.208-1.23-1.04-1.03-1.88l1.12-4.709.505-2.127c.47-1.975-1.49.42-1.892-.49-.265-.6 1.525-1.863 2.833-2.814 0 0 .673-.467 1.134-.465l.065-.03v.03c.096.005.194.02.292.044l.145.038c.804.208 1.294 1.057 1.095 1.896l-1.12 4.71-.506 2.127zm-.206-9.77c-1.16 0-2.1-.98-2.1-2.19 0-1.211.94-2.192 2.1-2.192 1.16 0 2.1.981 2.1 2.191s-.94 2.192-2.1 2.192z" fill="currentColor"/><circle stroke="currentColor" stroke-linecap="round" stroke-linejoin="round" cx="14" cy="14" r="14"/></g></symbol>
<symbol id="invoice" viewBox="0 0 22 20"><path fill-rule="evenodd" clip-rule="evenodd" d="M8.185 0a2.491 2.491 0 00-2.491 2.491v.763H1.678C.75 3.254 0 4.004 0 4.93v13.014c0 .927.751 1.678 1.678 1.678h17.894c.927 0 1.678-.751 1.678-1.678V9.654 4.932c0-.927-.751-1.678-1.678-1.678h-4.016V2.49A2.49 2.49 0 0013.066 0H8.184zM1.729 17.895v-6.818a20.213 20.213 0 008.897 2.039c3.088.003 6.129-.697 8.895-2.04v6.819H1.73zm8.897-6.508c3.11.004 6.168-.773 8.895-2.255v-4.15H1.728v4.151a18.485 18.485 0 008.895 2.254h.003zm3.202-8.133V2.49a.763.763 0 00-.763-.763h-4.88a.763.763 0 00-.763.763v.763h6.406zm-4.423 4.88a.864.864 0 100 1.728h2.44a.864.864 0 100-1.728h-2.44z" fill="currentColor"/></symbol>
<symbol id="knowledge" viewBox="0 0 24 24"><g fill="none" fill-rule="evenodd"><circle fill="currentColor" cx="12" cy="12" r="12"/><path d="M14.316 17.905a3.672 3.672 0 01-2.556 1.032 3.67 3.67 0 01-2.605-1.081l1.72-1.72c.227.225.541.368.885.368s.659-.143.885-.369l3.49-3.49c.226-.226.369-.54.369-.885 0-.344-.143-.658-.369-.884a1.253 1.253 0 00-.885-.37c-.344 0-.658.143-.884.37l-3.49 3.49a3.67 3.67 0 01-2.606 1.081 3.67 3.67 0 01-2.605-1.081 3.67 3.67 0 01-1.081-2.606 3.67 3.67 0 011.081-2.605l3.49-3.49a3.67 3.67 0 012.605-1.081 3.67 3.67 0 012.606 1.081l-1.72 1.72a1.253 1.253 0 00-.886-.368c-.344 0-.658.142-.884.369l-3.49 3.49c-.227.226-.37.54-.37.884s.143.659.37.885c.226.226.54.369.884.369s.659-.143.885-.369l3.49-3.49a3.67 3.67 0 012.605-1.081 3.67 3.67 0 012.606 1.081 3.67 3.67 0 011.081 2.605 3.67 3.67 0 01-1.081 2.606l-3.54 3.539z" fill="#FFF"/></g></symbol>
<symbol id="lang" viewBox="0 0 16 15"><path d="M7.311 11.535c-.965-.586-2.635-2.002-2.67-1.972a23.996 23.996 0 01-2.798 1.916c-.583.337-1.176.42-1.542-.077a.841.841 0 01.226-1.19c.007-.003 2.073-1.35 2.761-1.945A9.865 9.865 0 011.397 5.27a.913.913 0 01.446-1.159c.447-.188.89-.107 1.26.525A8.755 8.755 0 004.64 7.09a9.195 9.195 0 001.827-3.683L0 3.39v-1.7h4.077V.846a.835.835 0 111.67 0v.843h4.381v1.7H8.36a14.436 14.436 0 01-2.237 4.878c.607.526 1.26.997 1.95 1.407l1.956-4.801a.985.985 0 011.848.013l2.55 6.26L16 14.863h-2.096l-.917-2.152H8.885l-.752 2.152H5.931l.243-.586 1.137-2.741zm3.655-4.378l-1.42 3.859h2.84l-1.42-3.859z" fill="currentColor"/></symbol>
<symbol id="left-arrow" viewBox="0 0 16 24"><path fill="none" stroke="currentColor" stroke-width="4" stroke-miterlimit="10" d="M13.1 21.9l-10-10 10-10"/></symbol>
<symbol id="lesson-filled" viewBox="0 0 14 16"><path d="M1.75 0C.784 0 0 .717 0 1.6v12.8c0 .883.784 1.6 1.75 1.6h10.5c.966 0 1.75-.717 1.75-1.6V4.8L8.75 0h-7zm7 5.6h-.875v-4l4.375 4h-3.5z" fill="currentColor"/></symbol>
<symbol id="lesson" viewBox="0 0 14 16"><path d="M13.945 5.344c-.01-.026-.018-.05-.029-.075a.798.798 0 00-.171-.235l-5.25-4.8a.882.882 0 00-.257-.156C8.212.066 8.184.06 8.156.05a.94.94 0 00-.227-.04C7.91.008 7.893 0 7.875 0H1.75C.785 0 0 .718 0 1.6v12.8c0 .882.785 1.6 1.75 1.6h10.5c.965 0 1.75-.718 1.75-1.6V5.6c0-.017-.01-.032-.011-.05a.734.734 0 00-.044-.206zM11.013 4.8H8.75V2.731L11.013 4.8zM1.75 14.4V1.6H7v4c0 .442.391.8.875.8h4.375l.002 8H1.75z" fill="currentColor"/></symbol>
<symbol id="linux-code" viewBox="0 0 42 42"><g fill="none" stroke="currentColor" stroke-width="2" stroke-miterlimit="10"><path d="M18 29l-8-8 8-8M25 13l8 8-8 8"/></g></symbol>
<symbol id="list-check-mark" viewBox="0 0 20 20"><path fill="#6C6" fill-rule="evenodd" d="M7.644 13.469l-2.892-2.892a.83.83 0 10-1.175 1.175l3.483 3.483a.83.83 0 001.175 0l8.817-8.816a.83.83 0 10-1.175-1.175l-8.233 8.225z"/></symbol>
<symbol id="list-grey-cross-mark" viewBox="0 0 20 20"><path fill="#999" fill-rule="evenodd" d="M15.575 4.434a.881.881 0 00-1.248 0L10 8.752 5.673 4.425a.881.881 0 10-1.248 1.248L8.752 10l-4.327 4.327a.881.881 0 101.248 1.248L10 11.248l4.327 4.327a.881.881 0 101.248-1.248L11.248 10l4.327-4.327a.887.887 0 000-1.239z"/></symbol>
<symbol id="list-red-cross-mark" viewBox="0 0 20 20"><path fill="#D41F1F" fill-rule="evenodd" d="M15.575 4.434a.881.881 0 00-1.248 0L10 8.752 5.673 4.425a.881.881 0 10-1.248 1.248L8.752 10l-4.327 4.327a.881.881 0 101.248 1.248L10 11.248l4.327 4.327a.881.881 0 101.248-1.248L11.248 10l4.327-4.327a.887.887 0 000-1.239z"/></symbol>
<symbol id="lock" viewBox="0 0 30 30"><path d="M15 3c6.6 0 12 5.4 12 12s-5.4 12-12 12S3 21.6 3 15 8.4 3 15 3m0-3C6.7 0 0 6.7 0 15s6.7 15 15 15 15-6.7 15-15S23.3 0 15 0z" fill="currentColor"/><path d="M19 14v-4c0-2.2-1.8-4-4-4s-4 1.8-4 4v4c-1.1 0-2 .9-2 2v4c0 1.1.9 2 2 2h8c1.1 0 2-.9 2-2v-4c0-1.1-.9-2-2-2zm-6 0v-4c0-1.1.9-2 2-2s2 .9 2 2v4h-4z" fill="currentColor"/></symbol>
<symbol id="lock2" viewBox="0 0 12 16"><path d="M10 8.042v-4c0-2.2-1.8-4-4-4s-4 1.8-4 4v4c-1.1 0-2 .9-2 2v4c0 1.1.9 2 2 2h8c1.1 0 2-.9 2-2v-4c0-1.1-.9-2-2-2zm-6 0v-4c0-1.1.9-2 2-2s2 .9 2 2v4H4z" fill="currentColor" stroke="null"/></symbol>
<symbol id="lock3" viewBox="0 0 12 12"><path fill="currentColor" fill-rule="evenodd" d="M6.288.6a3.493 3.493 0 013.49 3.49v1.213H9.8c.508 0 .919.41.919.919v4.259c0 .508-.41.919-.92.919H2.72a.918.918 0 01-.919-.919v-4.26c0-.508.41-.918.919-.918h.08v-1.13C2.8 2.284 4.264.675 6.154.605 6.2.605 6.242.6 6.289.6zM6.26 7.099c-.028 0-.06 0-.093.004a.762.762 0 00-.663.635.756.756 0 00.261.709l-.2.975-.003.053a.176.176 0 00.175.157h1.036l.053-.008a.18.18 0 00.12-.202l-.196-.966.08-.076a.762.762 0 00.2-.516.77.77 0 00-.77-.765zm.028-4.973c-.06 0-.126.004-.191.009-1.017.098-1.773.989-1.773 2.01v1.158h3.928L8.247 4.09l-.004-.147a1.961 1.961 0 00-1.955-1.817z"/></symbol>
<symbol id="logo-outlined" viewBox="0 0 16 16"><path d="M14.283 4.389h0l.001.001a4.856 4.856 0 011.465 3.612h0v.006c0 1.36-.535 2.657-1.498 3.619l-2.692 2.69A5.096 5.096 0 018 15.75c-1.36 0-2.66-.534-3.622-1.496l-2.63-2.627A5.077 5.077 0 01.25 8.008c0-1.375.534-2.656 1.512-3.618h0l.002-.001 2.629-2.643s0 0 0 0A5.087 5.087 0 018.015.25c1.376 0 2.66.534 3.64 1.497l2.628 2.642z" fill="#fff" stroke="currentColor" stroke-width=".5"/><path fill-rule="evenodd" clip-rule="evenodd" d="M9.955 12.636a2.786 2.786 0 01-1.924.785c-.77 0-1.458-.304-1.971-.816l1.298-1.298c.176.176.4.272.673.272.257 0 .497-.112.674-.272l2.629-2.626a.917.917 0 00.272-.673c0-.256-.112-.497-.272-.673a.919.919 0 00-.674-.272.987.987 0 00-.673.272L7.358 9.978a2.801 2.801 0 01-1.972.817 2.83 2.83 0 01-1.971-.817 2.796 2.796 0 01-.818-1.97c0-.769.305-1.458.818-1.97L6.044 3.41a2.801 2.801 0 011.971-.817c.77 0 1.46.305 1.972.817L8.69 4.71a.919.919 0 00-.674-.273.987.987 0 00-.673.273l-2.63 2.625a.917.917 0 00-.272.673c0 .256.112.496.272.673.176.176.4.272.673.272.257 0 .497-.112.674-.272l2.629-2.627a2.801 2.801 0 011.971-.817 2.795 2.795 0 012.79 2.787c0 .769-.305 1.457-.818 1.97l-2.677 2.643z" fill="currentColor"/></symbol>
<symbol id="logo" viewBox="0 0 60 60"><path fill="#fff" d="M54.1 15.8l-9.9-9.9C40.4 2.1 35.4 0 30 0S19.6 2.1 15.8 5.9l-9.9 9.9C2.1 19.6 0 24.6 0 30s2.1 10.4 5.9 14.2l9.9 9.9C19.6 57.9 24.6 60 30 60c5.2 0 10.2-2 14-5.6l10.1-10.1C57.9 40.4 60 35.4 60 30s-2.1-10.4-5.9-14.2z"/><path d="M37.1 47.1C35.3 48.9 32.8 50 30 50s-5.4-1.2-7.3-3l4.8-4.8c.6.6 1.5 1 2.5 1s1.8-.4 2.5-1l9.7-9.7c.6-.6 1-1.5 1-2.5s-.4-1.8-1-2.5c-.6-.6-1.5-1-2.5-1s-1.8.4-2.5 1l-9.7 9.7c-1.9 1.9-4.4 3-7.3 3s-5.4-1.2-7.3-3c-1.9-1.9-3-4.4-3-7.3s1.2-5.4 3-7.3l9.7-9.7c1.9-1.9 4.4-3 7.3-3s5.4 1.2 7.3 3l-4.8 4.8c-.6-.6-1.5-1-2.5-1s-1.8.4-2.5 1l-9.7 9.7c-.6.6-1 1.5-1 2.5s.4 1.8 1 2.5c.6.6 1.5 1 2.5 1s1.8-.4 2.5-1l9.7-9.7c1.9-1.9 4.4-3 7.3-3s5.4 1.2 7.3 3c1.9 1.9 3 4.4 3 7.3 0 2.8-1.2 5.4-3 7.3l-9.9 9.8z"/></symbol>
<symbol id="lti-consumer" viewBox="0 0 42 42"><g fill="none" stroke="currentColor" stroke-width="2" stroke-miterlimit="10"><path d="M18 29l-8-8 8-8M25 13l8 8-8 8"/></g></symbol>
<symbol id="mail-filled" viewBox="0 0 16 13"><path d="M14.4 0H1.6A1.6 1.6 0 000 1.6v9.6a1.6 1.6 0 001.6 1.6h12.8a1.6 1.6 0 001.6-1.6V1.6A1.6 1.6 0 0014.4 0zm0 3.76L8 8.027 1.6 3.76V1.838L8 6.104l6.4-4.266V3.76z" fill="currentColor"/></symbol>
<symbol id="mail" viewBox="0 0 16 13"><path d="M14.4 0H1.6C.718 0 0 .718 0 1.6v9.6c0 .882.718 1.6 1.6 1.6h12.8c.882 0 1.6-.718 1.6-1.6V1.6c0-.882-.718-1.6-1.6-1.6zm0 1.6v.409L8 6.987 1.6 2.01V1.6h12.8zM1.6 11.2V4.035l5.909 4.596a.795.795 0 00.982 0L14.4 4.035l.002 7.165H1.6z" fill="currentColor"/></symbol>
<symbol id="manual-score" viewBox="0 0 42 42"><path fill="none" stroke="currentColor" stroke-width="2" stroke-miterlimit="10" d="M23 13c1-1 2-1 3 0M29 16c1 1 1 2 0 3M12 25c0-1 1-2 2-2M14 30c-1 0-2-1-2-2"/><path fill="none" stroke="currentColor" stroke-width="2" stroke-linecap="round" stroke-linejoin="round" stroke-miterlimit="10" d="M29 16l-3-3"/><path fill="none" stroke="currentColor" stroke-width="2" stroke-linecap="round" stroke-miterlimit="10" d="M19 29l10-10M13 23l10-10M12 28v-3"/><path fill="none" stroke="currentColor" stroke-width="2" stroke-miterlimit="10" d="M17 30c1 0 2-.9 2-2"/><path fill="none" stroke="currentColor" stroke-width="2" stroke-linecap="round" stroke-miterlimit="10" d="M14 30h3"/><path fill="none" stroke="currentColor" stroke-width="2" stroke-miterlimit="10" d="M25 17l-9 9M28 21l-7-7M19 28l-5-5M12 26l4 4"/></symbol>
<symbol id="mark-as-read" viewBox="0 0 20 20"><path fill-rule="evenodd" clip-rule="evenodd" d="M12.605 4.167H4c-.827 0-1.5.672-1.5 1.5v9c0 .827.673 1.5 1.5 1.5h12c.827 0 1.5-.673 1.5-1.5v-6.78a3.314 3.314 0 01-1.5.442l.002 6.338H4V7.95l5.54 4.308a.745.745 0 00.92 0l5.065-3.939a3.315 3.315 0 01-1.646-.619L10 10.717 4 6.051v-.384h8.567a3.35 3.35 0 01.038-1.5z" fill="currentColor"/><circle cx="15.833" cy="5" r="2.5" fill="currentColor"/></symbol>
<symbol id="mark-circle" viewBox="0 0 24 24"><g stroke="#FFF" stroke-width="2" fill="none" fill-rule="evenodd"><path d="M12 23c6.075 0 11-4.925 11-11S18.075 1 12 1 1 5.925 1 12s4.925 11 11 11z" fill="currentColor"/><path d="M8 11.382l3.15 2.985L16.63 9" stroke-linecap="square"/></g></symbol>
<symbol id="matching" viewBox="0.5 42.5 42 42"><circle fill="none" stroke="currentColor" stroke-width="2" cx="29.5" cy="70.5" r="3"/><circle fill="none" stroke="currentColor" stroke-width="2" cx="14.5" cy="55.5" r="3"/><path fill="none" stroke="currentColor" stroke-width="2" d="M26.5 52.5h6v6h-6zm-16 21l4-7 4 7z"/><path fill="none" stroke="currentColor" stroke-width="2" stroke-miterlimit="10" d="M17.5 58.5l2 2m1 1l3 3m1 1l2 2"/></symbol>
<symbol id="math" viewBox="0 0 42 42"><g fill="none" stroke="currentColor" stroke-width="2" stroke-miterlimit="10"><path opacity=".7" d="M11 16h8m-8 11h8"/><path d="M15 12v8"/><path opacity=".7" d="M24 24l6 6"/><path d="M30 24l-6 6"/><path opacity=".7" d="M24 19l6-6"/></g></symbol>
<symbol id="menu-more" viewBox="0 0 18 18"><path fill="currentColor" fill-rule="evenodd" d="M9 5c1.1 0 2-.9 2-2s-.9-2-2-2-2 .9-2 2 .9 2 2 2zm0 2c-1.1 0-2 .9-2 2s.9 2 2 2 2-.9 2-2-.9-2-2-2zm0 6c-1.1 0-2 .9-2 2s.9 2 2 2 2-.9 2-2-.9-2-2-2z"/></symbol>
<symbol id="menu" viewBox="0 0 20 18"><path d="M0 1h20M0 9h20M0 17h20" fill="none" stroke="currentColor" stroke-width="2" stroke-miterlimit="10"/></symbol>
<symbol id="modal-button-close" viewBox="0 0 16 16"><g fill="none" stroke="currentColor" stroke-width="2"><path d="M2 14L14 2M2 2l12 12"/></g></symbol>
<symbol id="move-arrow" viewBox="0 0 9 16"><path d="M3 0v9H0l4.5 7L9 9H6V0z" fill="currentColor"/></symbol>
<symbol id="next-step-timer" viewBox="0 0 128 128"><g fill="none" fill-rule="evenodd"><circle fill="#000" opacity=".25" cx="64" cy="64" r="64"/><path d="M43 46.006c0-1.66 1.128-2.266 2.502-1.365l27.226 17.852c1.382.906 1.374 2.38 0 3.28L45.502 83.627C44.12 84.532 43 83.932 43 82.26V46.006zM76 43h6a1 1 0 011 1v40a1 1 0 01-1 1h-6a1 1 0 01-1-1V44a1 1 0 011-1z" fill="#62CE61"/></g></symbol>
<symbol id="notifications-filled" viewBox="0 0 15 16"><path d="M13.6 10.211V8c0-3.662-1.967-6.366-4.93-7.035A1.594 1.594 0 007.2 0c-.66 0-1.223.396-1.468.965C2.768 1.635.8 4.338.8 8v2.211l-.716 1.431A.798.798 0 00.8 12.8h12.816a.8.8 0 00.636-1.286l-.652-1.303zM7.2 16a2.384 2.384 0 002.255-1.6H4.946A2.384 2.384 0 007.201 16z" fill="currentColor"/></symbol>
<symbol id="notifications" viewBox="0 0 15 16"><path d="M13.6 10.27V8c0-3.662-1.967-6.366-4.931-7.035A1.594 1.594 0 007.2 0c-.66 0-1.224.396-1.469.965C2.767 1.635.8 4.338.8 8v2.27l-.758 2.277A.796.796 0 00.8 13.6h4c0 1.331 1.069 2.4 2.4 2.4s2.4-1.069 2.4-2.4h4.016a.8.8 0 00.695-1.196L13.6 10.27zM1.91 12l.45-1.347a.824.824 0 00.04-.253V8c0-3.402 1.884-5.6 4.8-5.6S12 4.598 12 8v2.4a.78.78 0 00.042.253L12.49 12H1.91z" fill="currentColor"/></symbol>
<symbol id="number" viewBox="0 0 42 42"><path fill="none" stroke="currentColor" stroke-width="2" stroke-miterlimit="10" d="M15 17v-6h11v11h-6"/><path opacity=".7" fill="currentColor" d="M20 26v6l3-3z"/></symbol>
<symbol id="one-time" viewBox="0 0 18 18"><path fill="none" d="M-1-1h4.25v4.25H-1z"/><g fill-rule="evenodd" fill="none"><circle r="8" cy="9" cx="9"/><g fill="currentColor"><path d="M8.938 18a9 9 0 110-18 9 9 0 010 18zm0-2a7 7 0 100-14 7 7 0 000 14z"/><text x="-.063" font-weight="bold" font-size="10" font-family="NotoSans-Bold, Noto Sans"><tspan y="12.5" x="6.5">1</tspan></text></g></g></symbol>
<symbol id="paid" viewBox="0 0 7 13"><path d="M4.186 12.3v-1.144c1.508-.182 2.626-1.131 2.626-2.704 0-1.54-1.033-2.112-2.068-2.535l-.281-.112-.277-.109V3.525c.455.117.78.429.988.949l1.508-.884c-.494-1.105-1.417-1.703-2.496-1.833V.6h-.871v1.131C1.95 1.861.728 2.745.728 4.357c0 1.729 1.339 2.314 2.548 2.782.013 0 .026.013.039.013v2.249c-.715-.104-1.17-.507-1.443-1.183l-1.547.897c.455 1.209 1.534 1.95 2.99 2.054V12.3h.871zm-.871-6.994c-.598-.299-.806-.559-.806-.936 0-.442.286-.78.806-.884v1.82zm.871 4.069V7.503c.533.247.832.507.832.962 0 .403-.247.78-.832.91z" fill="currentColor"/></symbol>
<symbol id="parsons" viewBox="0 0 42 42"><g fill="none" stroke="currentColor" stroke-width="2" stroke-miterlimit="10"><path d="M18 29l-8-8 8-8M25 13l8 8-8 8"/></g></symbol>
<symbol id="partially-correct" viewBox="0 0 24 24"><path d="M12 0C5.4 0 0 5.4 0 12s5.4 12 12 12 12-5.4 12-12S18.6 0 12 0zM9.6 18l-6-6 1.68-1.68 4.32 4.32 9.12-9.12L20.4 7.2 9.6 18z" fill="#FFCE6E" fill-rule="evenodd"/></symbol>
<symbol id="pause" viewBox="0 0 70 70"><g fill="currentColor"><path d="M52.5 0c-4.972 0-9 1.529-9 6.5v57c0 4.971 4.028 6.5 9 6.5 4.971 0 9-1.529 9-6.5v-57c0-4.971-4.029-6.5-9-6.5zM17.5 0c-4.972 0-9 1.529-9 6.5v57c0 4.971 4.028 6.5 9 6.5 4.971 0 9-1.529 9-6.5v-57c0-4.971-4.029-6.5-9-6.5z"/></g></symbol>
<symbol id="payment-type-purchase-author-link" viewBox="0 0 16 16"><circle cx="8" cy="8" r="7.75" fill="#E7F2FF" stroke="#4485ED" stroke-width=".5"/><path d="M5.266 12.111c.468 0 .732-.234.896-.796l.445-1.319H9.66l.445 1.336c.159.55.422.78.92.78.516 0 .885-.346.885-.833 0-.175-.03-.334-.111-.562l-2.32-6.293c-.252-.692-.663-.996-1.354-.996-.668 0-1.084.316-1.33 1.002l-2.309 6.287a1.817 1.817 0 00-.117.562c0 .51.346.832.897.832zm1.728-3.486L8.09 5.162h.04l1.12 3.463H6.994z" fill="#4485ED"/></symbol>
<symbol id="payment-type-purchase-on-invoice" viewBox="0 0 16 16"><path d="M14.283 4.389h0l.001.001a4.856 4.856 0 011.465 3.612h0v.006c0 1.36-.535 2.657-1.498 3.619l-2.692 2.69A5.096 5.096 0 018 15.75c-1.36 0-2.66-.534-3.622-1.496l-2.63-2.627A5.077 5.077 0 01.25 8.008c0-1.375.534-2.656 1.512-3.618h0l.002-.001 2.629-2.643s0 0 0 0A5.087 5.087 0 018.015.25c1.376 0 2.66.534 3.64 1.497l2.628 2.642z" fill="#fff" stroke="#222" stroke-width=".5"/><path fill-rule="evenodd" clip-rule="evenodd" d="M9.955 12.636a2.786 2.786 0 01-1.924.785c-.77 0-1.458-.304-1.971-.816l1.298-1.298c.176.176.4.272.673.272.257 0 .497-.112.674-.272l2.629-2.626a.917.917 0 00.272-.673c0-.256-.112-.497-.272-.673a.919.919 0 00-.674-.272.987.987 0 00-.673.272L7.358 9.978a2.801 2.801 0 01-1.972.817 2.83 2.83 0 01-1.971-.817 2.796 2.796 0 01-.818-1.97c0-.769.305-1.458.818-1.97L6.044 3.41a2.801 2.801 0 011.971-.817c.77 0 1.46.305 1.972.817L8.69 4.71a.919.919 0 00-.674-.273.987.987 0 00-.673.273l-2.63 2.625a.917.917 0 00-.272.673c0 .256.112.496.272.673.176.176.4.272.673.272.257 0 .497-.112.674-.272l2.629-2.627a2.801 2.801 0 011.971-.817 2.795 2.795 0 012.79 2.787c0 .769-.305 1.457-.818 1.97l-2.677 2.643z" fill="#222"/></symbol>
<symbol id="payment-type-purchase-z-link" viewBox="0 0 16 16"><circle cx="8" cy="8" r="7.75" fill="#E7F2FF" stroke="#4485ED" stroke-width=".5"/><path fill-rule="evenodd" clip-rule="evenodd" d="M4.633 4.667c0-.46.373-.834.834-.834h4.169c2.431 0 3.018 3.39.729 4.207L6.196 9.53c-.528.188-.393.97.168.97h4.17a.833.833 0 010 1.667h-4.17c-2.431 0-3.018-3.39-.728-4.208l4.168-1.488c.528-.189.393-.971-.168-.971h-4.17a.833.833 0 01-.833-.833z" fill="#4485ED"/></symbol>
<symbol id="payment-type-purchase" viewBox="0 0 16 16"><path d="M14.283 4.389h0l.001.001a4.856 4.856 0 011.465 3.612h0v.006c0 1.36-.535 2.657-1.498 3.619l-2.692 2.69A5.096 5.096 0 018 15.75c-1.36 0-2.66-.534-3.622-1.496l-2.63-2.627A5.077 5.077 0 01.25 8.008c0-1.375.534-2.656 1.512-3.618h0l.002-.001 2.629-2.643s0 0 0 0A5.087 5.087 0 018.015.25c1.376 0 2.66.534 3.64 1.497l2.628 2.642z" fill="#fff" stroke="#54ad54" stroke-width=".5"/><path fill-rule="evenodd" clip-rule="evenodd" d="M9.955 12.636a2.786 2.786 0 01-1.924.785c-.77 0-1.458-.304-1.971-.816l1.298-1.298c.176.176.4.272.673.272.257 0 .497-.112.674-.272l2.629-2.626a.917.917 0 00.272-.673c0-.256-.112-.497-.272-.673a.919.919 0 00-.674-.272.987.987 0 00-.673.272L7.358 9.978a2.801 2.801 0 01-1.972.817 2.83 2.83 0 01-1.971-.817 2.796 2.796 0 01-.818-1.97c0-.769.305-1.458.818-1.97L6.044 3.41a2.801 2.801 0 011.971-.817c.77 0 1.46.305 1.972.817L8.69 4.71a.919.919 0 00-.674-.273.987.987 0 00-.673.273l-2.63 2.625a.917.917 0 00-.272.673c0 .256.112.496.272.673.176.176.4.272.673.272.257 0 .497-.112.674-.272l2.629-2.627a2.801 2.801 0 011.971-.817 2.795 2.795 0 012.79 2.787c0 .769-.305 1.457-.818 1.97l-2.677 2.643z" fill="#54ad54"/></symbol>
<symbol id="payment-type-refund" viewBox="0 0 20 20"><g clip-path="url(#clip0)"><circle cx="10" cy="9.963" r="9.75" fill="#FFEBE8" stroke="#9F0F38" stroke-width=".5"/><path fill-rule="evenodd" clip-rule="evenodd" d="M8.013 7.286a3.333 3.333 0 11-.68 4.677.833.833 0 00-1.333 1 5 5 0 10.826-6.865l-.42-.419c-.541-.541-1.465-.126-1.42.639l.122 2.08a.833.833 0 00.783.784l2.081.122c.765.045 1.18-.88.638-1.421l-.597-.597z" fill="#9F0F38"/></g><defs><clipPath id="clip0"><path fill="#fff" d="M0 0h20v20H0z"/></clipPath></defs></symbol>
<symbol id="peer-review" viewBox="0 0 26 23"><g transform="matrix(-1 0 0 1 26 0)" fill="currentColor" fill-rule="evenodd"><path d="M11.902 18.805c-.802 4.292-5.446 4.187-5.446 4.187s2.022-2.423 1.04-4.855l4.406.668z"/><rect width="26" height="19" rx="9.5"/></g></symbol>
<symbol id="peer" viewBox="0 0 20 21"><path d="M7.917 10.5a3.337 3.337 0 003.333-3.334 3.337 3.337 0 00-3.333-3.333 3.337 3.337 0 00-3.334 3.333A3.337 3.337 0 007.917 10.5zm1.25.833h-2.5c-2.758 0-5 2.242-5 5v.833h12.5v-.833c0-2.757-2.243-5-5-5z" fill="currentColor"/><path d="M13.837 9.706a4.725 4.725 0 00.626-2.866c-.15-1.487-.98-2.801-2.336-3.7l-.921 1.388c.932.618 1.5 1.5 1.598 2.478a3.077 3.077 0 01-.893 2.489l-.993.993 1.348.396c3.527 1.033 3.567 4.58 3.567 4.616H17.5c0-1.491-.797-4.405-3.663-5.794z" fill="currentColor"/></symbol>
<symbol id="pencil" viewBox="0 0 16 16"><path d="M.02 12.688v3.333h3.334l9.83-9.83L9.85 2.858l-9.83 9.83zm15.74-9.074a.885.885 0 000-1.253L13.68.28a.885.885 0 00-1.252 0l-1.626 1.626 3.333 3.333 1.626-1.626z" fill-rule="evenodd" fill="currentColor"/></symbol>
<symbol id="pick-image" viewBox="0 0 20 20"><path fill="none" stroke="currentColor" stroke-width="2" stroke-miterlimit="10" d="M5 6V1h14v14h-5"/><path fill="none" stroke="currentColor" stroke-width="2" stroke-miterlimit="10" d="M1 5h14v14H1z"/><path fill="none" stroke="currentColor" stroke-width="2" stroke-miterlimit="10" d="M15 17l-4-4-2 2-4-4-4 4"/><circle fill="currentColor" cx="11.5" cy="8.5" r="1.5"/></symbol>
<symbol id="pin" viewBox="0 0 18 18"><path fill="currentColor" d="M14.486 10.429l-4.88.013-.005 6.282c0 .526-.261.96-.58.96-.316 0-.577-.43-.576-.957l.005-6.282-4.88.012a5.508 5.508 0 012.27-3.78l.004-4.48-.902.002.002-1.983 8.185-.02-.002 1.982-.902.002-.004 4.48a5.457 5.457 0 012.265 3.769zM7 2v4h1V2H7z"/></symbol>
<symbol id="pinned" viewBox="0 0 18 18"><path fill="#999" fill-rule="evenodd" d="M10.971 4.008l-3.96.018a.262.262 0 00-.261.26v.017a.895.895 0 00.653.87l-.31 3.853a1.222 1.222 0 00-.797.36c-.232.231-.36.54-.362.866v.025a.256.256 0 00.258.258l2.373-.011-.01 2.311c0 .047.011 1.158.097 1.965.08.77.09.915.091.923.008.136.12.241.257.24a.26.26 0 00.26-.242c0-.006.011-.15.1-.924.093-.808.114-1.92.115-1.97l.01-2.307 2.246-.01a.26.26 0 00.26-.26v-.025a1.204 1.204 0 00-.354-.864 1.203 1.203 0 00-.793-.352l-.276-3.85a.914.914 0 00.661-.876v-.017a.256.256 0 00-.258-.258z"/></symbol>
<symbol id="play-button" viewBox="0 0 42 42"><circle cx="21" cy="21" r="20.5" stroke="currentColor" fill="none"/><path fill-rule="evenodd" clip-rule="evenodd" d="M16.45 14.66v14.08a1.356 1.356 0 002.093 1.14l11.062-7.038c.842-.53.842-1.753 0-2.297l-11.062-7.026a1.356 1.356 0 00-2.093 1.142z" fill="currentColor"/></symbol>
<symbol id="plus-2" viewBox="0 0 24 24"><path d="M12 3a1 1 0 01.993.883L13 4v7h7a1 1 0 01.117 1.993L20 13h-7v7a1 1 0 01-1.993.117L11 20v-7H4a1 1 0 01-.117-1.993L4 11h7V4a1 1 0 011-1z" fill="currentColor" fill-rule="evenodd"/></symbol>
<symbol id="plus-minus" viewBox="0 0 12 14"><path d="M6.862 4.388h4.792v1.724H6.862V10.5H5.138V6.112H.346V4.388h4.792V0h1.724v4.388zM.346 14v-1.723h11.308V14H.346z" fill="#999"/></symbol>
<symbol id="plus" viewBox="0 0 16 16"><path d="M9 7V0H7v7H0v2h7v7h2V9h7V7H9z" fill="currentColor" fill-rule="evenodd"/></symbol>
<symbol id="publication" viewBox="0 0 14 16"><path fill-rule="evenodd" clip-rule="evenodd" d="M13.083.5c-.45 0-.75.3-.75.75v.45c-1.275 1.575-3.225 2.55-5.25 2.55h-4.5c-1.275 0-2.25.975-2.25 2.25V8c0 1.275.975 2.25 2.25 2.25h.375l-1.8 4.2c-.15.375 0 .825.375.975.075.075.225.075.3.075h3c.3 0 .6-.15.675-.45l2.025-4.8a7.01 7.01 0 014.8 2.475v.45c0 .45.3.75.75.75s.75-.3.75-.75v-12c0-.3-.3-.675-.75-.675zm-10.5 8.25c-.45 0-.75-.3-.75-.75V6.5c0-.45.3-.75.75-.75h.75v3h-.75zM4.308 14h-1.35l1.575-3.75h1.35L4.308 14z" fill="currentColor"/></symbol>
<symbol id="pycharm" viewBox="0 0 42 42"><g fill="currentColor"><path d="M26.8 17.4h-.5c-1.7 0-3.1 1.1-3.5 2.7v.1c-.4 1.7-1.8 2.9-3.6 2.9-2 0-3.7-1.6-3.7-3.7V19v-.1-.1c.6-3 2.4-5.5 5.1-7.1-.5-.1-1-.1-1.5-.1-4 0-7.5 3.2-7.8 7.2v11.7h4.2v-3.6c0-.1.1-.2.1-.3.1-.1.2-.1.3 0 1 .5 2.1.7 3.2.7 4.3 0 7.9-3.5 7.9-7.9 0-.7 0-1.3-.2-2zM28.5 26h-2.8c-1.4 1.4-3.2 2.3-5.1 2.6 1.6 1.2 3.6 1.9 5.6 1.9h2.2c1.2 0 2.2-1 2.2-2.2.1-1.3-.9-2.3-2.1-2.3z"/><path d="M28.5 11.5h-2.2c-4.5 0-8.4 3.1-9.3 7.4 0 .1-.1.3-.1.4 0 1.2 1 2.2 2.2 2.2 1.1 0 2-.8 2.2-1.8v-.1c.5-2.2 2.5-3.7 4.8-3.7h2.2c-.9-.4-1.5-1.2-1.8-2.1 0-.1 0-.3.1-.4.1-.1.3 0 .4.1.4.6 1.1 1 1.8 1.1.6.1 1.1.1 1.7-.2.1-.2.1-.5.1-.8.1-1.1-.9-2.1-2.1-2.1zm0 2.2h-.2c-.2 0-.4-.2-.5-.3s-.2-.4-.1-.6c.1-.4.5-.7 1-.6.4.1.7.5.6 1-.1.2-.4.5-.8.5z"/></g></symbol>
<symbol id="question-filled" viewBox="1 1 18 18"><path fill="currentColor" fill-rule="evenodd" d="M10 1c-4.968 0-9 4.032-9 9s4.032 9 9 9 9-4.032 9-9-4.032-9-9-9zm-.9 13.5h1.8v1.8H9.1v-1.8zm3.663-5.175l-.81.828c-.648.657-1.053 1.197-1.053 2.547H9.1v-.45c0-.99.405-1.89 1.053-2.547l1.116-1.134A1.76 1.76 0 0011.8 7.3c0-.99-.81-1.8-1.8-1.8s-1.8.81-1.8 1.8H6.4c0-1.989 1.611-3.6 3.6-3.6s3.6 1.611 3.6 3.6c0 .792-.324 1.512-.837 2.025z"/></symbol>
<symbol id="question" viewBox="0 0 20 20"><circle fill="none" stroke="currentColor" stroke-width="2" stroke-miterlimit="10" cx="10" cy="10" r="9"/><path fill="currentColor" d="M9 14h2v2H9zM9 11h2v2H9z"/><path fill="none" stroke="currentColor" stroke-width="2" stroke-miterlimit="10" d="M7 8c0-1.7 1.3-3 3-3s3 1.3 3 3-1.3 3-3 3H9"/></symbol>
<symbol id="random-tasks" viewBox="0 0 42 42"><path fill="none" stroke="currentColor" stroke-width="2" stroke-miterlimit="10" d="M15 17v-6h11v11h-6"/><path opacity=".7" fill="currentColor" d="M20 26v6l3-3z"/></symbol>
<symbol id="refresh" viewBox="0 0 16 16"><path d="M13.6 2.4C12.2.9 10.2 0 8 0 3.6 0 0 3.6 0 8s3.6 8 8 8c3.7 0 6.8-2.6 7.7-6h-2.1c-.8 2.3-3 4-5.6 4-3.3 0-6-2.7-6-6s2.7-6 6-6c1.7 0 3.1.7 4.2 1.8L9 7h7V0l-2.4 2.4z" fill="currentColor" fill-rule="evenodd"/></symbol>
<symbol id="reports-filled" viewBox="0 0 16 16"><path d="M8 3v11m5-7v7M3 11v3" stroke="currentColor" stroke-width="3" fill="none" stroke-linecap="round"/></symbol>
<symbol id="reports" viewBox="0 0 16 16"><path d="M8 3v11m5-7v7M3 11v3" stroke="currentColor" stroke-width="2" fill="none" stroke-linecap="round"/></symbol>
<symbol id="reputation" viewBox="0 0 24 24"><g fill="none" fill-rule="evenodd"><circle fill="currentColor" cx="12" cy="12" r="12"/><path fill="#FFF" d="M12.489 15.184L7.545 18.5l1.709-5.463-4.754-3.7 5.782-.046L12.489 3.5l2.146 5.838H20.5l-4.776 3.735 1.71 5.427z"/></g></symbol>
<symbol id="reusable" viewBox="0 0 16 8"><path fill-rule="evenodd" clip-rule="evenodd" d="M2.868 4.22c0-.655.53-1.185 1.185-1.185.833 0 1.684.39 2.432 1.184-.748.794-1.6 1.185-2.432 1.185-.654 0-1.185-.53-1.185-1.185zm9.08 3.552c-1.53 0-2.88-.674-3.948-1.718-1.068 1.044-2.418 1.718-3.947 1.718a3.553 3.553 0 110-7.105c1.53 0 2.879.673 3.947 1.718C9.068 1.34 10.418.667 11.947.667a3.553 3.553 0 010 7.105zm0-2.368a1.184 1.184 0 000-2.369c-.834 0-1.685.39-2.433 1.184.748.794 1.6 1.185 2.432 1.185z" fill="currentColor"/></symbol>
<symbol id="review-instructor" viewBox="0 0 10 12"><path d="M5 5.869c-1.334 0-2.416-1.314-2.416-2.935C2.584 1.314 2.939 0 5 0c2.06 0 2.416 1.314 2.416 2.934C7.416 4.555 6.334 5.87 5 5.87zm4.558 4.362c.003.18.004.212.005.196v.219S8.89 12 5 12C1.109 12 .437 10.646.437 10.646v-.297c0 .026.002.015.007-.21.051-2.749.442-3.541 3.233-4.045 0 0 .397.506 1.323.506.926 0 1.323-.506 1.323-.506 2.821.51 3.19 1.314 3.235 4.137z" fill="currentColor" fill-rule="nonzero"/></symbol>
<symbol id="review-peer" viewBox="0 0 14 12"><path d="M8.448 2.131a2.544 2.544 0 011.184 1.89 2.053 2.053 0 10-1.184-1.89zM7.103 6.335a2.053 2.053 0 100-4.106 2.053 2.053 0 000 4.106zm.871.14H6.232a2.632 2.632 0 00-2.629 2.63v2.13l.005.033.147.046c1.384.433 2.585.577 3.575.577 1.932 0 3.052-.551 3.12-.586l.138-.07h.015v-2.13c0-1.45-1.18-2.63-2.629-2.63zm3.397-2.12H9.642a2.53 2.53 0 01-.78 1.763 3.124 3.124 0 012.23 2.99v.656c1.708-.062 2.691-.546 2.756-.579l.137-.07H14v-2.13c0-1.45-1.18-2.63-2.629-2.63zm-7.87-.14A2.04 2.04 0 004.591 3.9c.101-.657.453-1.23.956-1.62.002-.04.005-.077.005-.116A2.053 2.053 0 103.5 4.216zm1.843 1.903a2.532 2.532 0 01-.78-1.753c-.064-.004-.128-.01-.193-.01H2.63A2.632 2.632 0 000 6.986v2.13l.005.033.147.047c1.11.346 2.1.506 2.96.556v-.643c.001-1.412.944-2.606 2.232-2.99z" fill="currentColor"/></symbol>
<symbol id="right-arrow" viewBox="0 0 16 24"><path fill="none" stroke="currentColor" stroke-width="4" stroke-miterlimit="10" d="M3.1 22l10-10-10-10"/></symbol>
<symbol id="robot" viewBox="0 0 20 20"><g transform="translate(1)" fill="none" fill-rule="evenodd"><rect stroke="#FFF" stroke-width="2" y="5" width="18" height="14" rx="2"/><path d="M4.5 12.5a2 2 0 110-4 2 2 0 010 4zm0-1a1 1 0 100-2 1 1 0 000 2z" fill="#FFF" fill-rule="nonzero"/><rect fill="#FFF" x="3" y="2" width="2" height="3" rx="1"/><rect fill="#FFF" transform="rotate(90 4 1)" x="3" y="-1" width="2" height="4" rx="1"/><path d="M13.5 12.5a2 2 0 110-4 2 2 0 010 4zm0-1a1 1 0 100-2 1 1 0 000 2zM11.5 14a.5.5 0 111 0c0 1.39-1.206 2.5-2.673 2.5H8.173C6.706 16.5 5.5 15.39 5.5 14a.5.5 0 111 0c0 .819.74 1.5 1.673 1.5h1.654c.933 0 1.673-.681 1.673-1.5z" fill="#FFF" fill-rule="nonzero"/></g></symbol>
<symbol id="rocket" viewBox="0 0 512 512"><path d="M507.2 32.2l-2.2-12c-1.2-6.8-6.5-12.1-13.3-13.3l-12-2.2C428.8-4.5 376.2-.4 327.4 16.8 264 39.2 222.5 76 185.8 121.5l-19.4-6.6c-31.4-10.8-66.2-3.6-90.7 18.7l-61.1 55.6c-29.5 26.8-11.4 76.1 28.5 77.3l54.1 1.7c-2.8 16.8 2.5 34.3 15 46.8l84.9 84.9c12.1 12.1 29.4 17.9 46.8 15l1.7 54.1c1.2 40 50.6 57.9 77.3 28.5l55.6-61.1c22.3-24.6 29.5-59.3 18.7-90.7l-6.6-19.4c44.3-35.7 81.7-76.7 104.6-141.7 17.1-48.8 21.3-101.5 12-152.4zM36.8 213.6L97.9 158c15.6-14.2 37.8-18.8 57.8-11.9l8.9 3.1c-19.3 26.5-37.4 55.4-53.7 86.4l-66.8-2.1c-10.2-.4-14.9-13-7.3-19.9zm329.1 142.7c6.9 20 2.3 42.1-11.9 57.8l-55.6 61.1c-6.9 7.6-19.5 3-19.8-7.3l-2.1-66.8c30.1-15.8 58.9-33.8 86.4-53.7l3 8.9zm20-69.2c-43 36.9-90.7 68.3-141.7 93.3-7.9 3.9-17.5 2.3-23.7-4 .1 0 .8.8-84.9-84.9-6.3-6.3-7.9-15.8-4-23.7 4.2-8.6 8.7-17.2 13.3-25.6l89.6 89.6c6.5 6.5 16.9 6.4 23.4 0 6.4-6.4 6.4-16.9 0-23.4L162 212.5c19.3-31.5 40.5-60.5 64.3-88.1C286 55.3 380 20.3 474.6 37.4c16.7 92-15.5 186.7-88.7 249.7zM292 119.3c-44.8 44.8-12.8 121.5 50.3 121.5 63.1 0 95.2-76.7 50.3-121.5-27.7-27.7-72.8-27.7-100.6 0zm77.3 77.3c-14.9 14.9-39.1 14.9-54 0-14.9-14.9-14.9-39.1 0-54 14.9-14.9 39.1-14.9 54 0 14.9 15 14.9 39.2 0 54zM43.9 403.9c-6.5-6.4-6.5-16.9 0-23.4l21.4-21.4c6.4-6.4 16.9-6.4 23.4 0s6.5 16.9 0 23.4l-21.4 21.4c-6.5 6.5-16.9 6.5-23.4 0zm109.9 13.9l-72.6 72.6c-6.5 6.5-16.9 6.5-23.4 0-6.5-6.4-6.5-16.9 0-23.4l72.6-72.6c6.5-6.4 16.9-6.4 23.4 0 6.4 6.5 6.4 16.9 0 23.4z" fill="currentColor"/></symbol>
<symbol id="schulte" viewBox="0 0 42 42"><g fill="none" stroke="currentColor" stroke-width="2" stroke-miterlimit="10"><path d="M29 14v13M14 14v13M19 14v13M24 14v13M13 13h17M13 18h17M13 23h17M13 28h17"/></g><path fill="currentColor" d="M24 18h5v5h-5zM14 13h5v5h-5z"/></symbol>
<symbol id="search-grey" viewBox="1 1 18 18"><path fill="#999" fill-rule="evenodd" d="M13.864 12.32h-.813l-.288-.277A6.66 6.66 0 0014.38 7.69a6.69 6.69 0 10-6.69 6.689c1.657 0 3.18-.607 4.354-1.616l.278.288v.813L17.467 19 19 17.466l-5.136-5.145zm-6.174 0a4.625 4.625 0 01-4.632-4.63A4.625 4.625 0 017.69 3.058a4.625 4.625 0 014.63 4.632 4.625 4.625 0 01-4.63 4.63z"/></symbol>
<symbol id="search" viewBox="1 1 18 18"><path fill="currentColor" fill-rule="evenodd" d="M13.864 12.32h-.813l-.288-.277A6.66 6.66 0 0014.38 7.69a6.69 6.69 0 10-6.69 6.689c1.657 0 3.18-.607 4.354-1.616l.278.288v.813L17.467 19 19 17.466l-5.136-5.145zm-6.174 0a4.625 4.625 0 01-4.632-4.63A4.625 4.625 0 017.69 3.058a4.625 4.625 0 014.63 4.632 4.625 4.625 0 01-4.63 4.63z"/></symbol>
<symbol id="send" viewBox="0 0 18 15"><path d="M16.2 0H3.6c-.993 0-1.8.807-1.8 1.8v4.5h1.8V3.6l5.76 4.32a.901.901 0 001.08 0L16.2 3.6v8.1H9v1.8h7.2c.993 0 1.8-.807 1.8-1.8V1.8c0-.993-.807-1.8-1.8-1.8zM9.9 6.075L4.2 1.8h11.4L9.9 6.075z" fill="currentColor"/><path d="M0 7.2h6.3V9H0V7.2zm1.8 2.7h5.4v1.8H1.8V9.9zm2.7 2.7h3.6v1.8H4.5v-1.8z" fill="currentColor"/></symbol>
<symbol id="settings" viewBox="0 0 30 30"><g fill="none" stroke="currentColor" stroke-width="4" stroke-miterlimit="10"><path d="M15 24v6m0-30v6m-9 9H0m30 0h-6m-2 7l3.6 3.6M4.4 4.4L8 8m1 13l-4.6 4.6M25.6 4.4L21 9"/><circle cx="15" cy="15" r="10"/></g></symbol>
<symbol id="sort-down" viewBox="0 0 16 16"><path fill="currentColor" fill-rule="evenodd" d="M3.355 14.853a.5.5 0 01-.707 0L.149 12.35a.5.5 0 01.353-.857h1.501V1.5a.5.5 0 01.5-.5h1.001a.5.5 0 01.5.5v9.998h1.5a.5.5 0 01.353.857l-2.502 2.498zM7.002 2.5v-1a.5.5 0 01.5-.501H15.5a.5.5 0 01.5.5v1a.5.5 0 01-.5.501h-8a.5.5 0 01-.498-.5zm0 3a.5.5 0 01.5-.5H13.5a.5.5 0 01.499.498v1a.5.5 0 01-.5.501H7.5a.5.5 0 01-.5-.5V5.5zm0 4a.5.5 0 01.5-.501H11.5a.5.5 0 01.5.5v.999a.5.5 0 01-.5.5h-4a.5.5 0 01-.5-.5l.002-.999zm0 3.998a.5.5 0 01.5-.5H9.5a.5.5 0 01.5.5v1a.5.5 0 01-.5.501h-2a.5.5 0 01-.5-.5l.002-1z"/></symbol>
<symbol id="sort-up" viewBox="0 0 16 16"><path fill="currentColor" fill-rule="evenodd" d="M2.647 1.147a.5.5 0 01.708 0l2.498 2.5A.5.5 0 015.5 4.5H4v10a.5.5 0 01-.5.5h-1a.5.5 0 01-.5-.5v-10H.5a.5.5 0 01-.353-.854l2.5-2.5zM7 2.5v-1a.5.5 0 01.5-.5h8a.5.5 0 01.5.5v1a.5.5 0 01-.5.5h-8a.5.5 0 01-.5-.5zm0 3a.5.5 0 01.5-.5h6a.5.5 0 01.5.5v1a.5.5 0 01-.5.5h-6a.5.5 0 01-.5-.5v-1zm0 4a.5.5 0 01.5-.5h4a.5.5 0 01.5.5v1a.5.5 0 01-.5.5h-4a.5.5 0 01-.5-.5v-1zm0 4a.5.5 0 01.5-.5h2a.5.5 0 01.5.5v.999a.5.5 0 01-.5.5h-2a.5.5 0 01-.5-.5v-1z"/></symbol>
<symbol id="sort" viewBox="0 0 18 18"><path fill="currentColor" fill-rule="evenodd" d="M0 15h6v-2H0v2zM0 5h18V3H0v2zm0 5h12V8H0v2z"/></symbol>
<symbol id="sorting" viewBox="0 0 42 42"><g fill="none" stroke="currentColor" stroke-width="2" stroke-miterlimit="10"><path d="M11 11h7v7h-7zm3 16c0-2.2 1.8-4 4-4s4 1.8 4 4-1.8 4-4 4-4-1.8-4-4z"/><path opacity=".7" d="M23 21l4-7 4 7z"/></g></symbol>
<symbol id="specialization-difficulty-easy" viewBox="0 0 20 20"><g fill="none" fill-rule="evenodd"><rect fill="#6C6" y="10" width="3" height="10" rx="1"/><rect fill="#222" x="8" y="5" width="3" height="15" rx="1"/><rect fill="#222" x="16" width="3" height="20" rx="1"/></g></symbol>
<symbol id="specialization-difficulty-hard" viewBox="0 0 20 20"><g fill="#6c6" fill-rule="evenodd"><rect y="10" width="3" height="10" rx="1"/><rect x="8" y="5" width="3" height="15" rx="1"/><rect x="16" width="3" height="20" rx="1"/></g></symbol>
<symbol id="specialization-difficulty-normal" viewBox="0 0 20 20"><g fill="none" fill-rule="evenodd"><rect fill="#6C6" y="10" width="3" height="10" rx="1"/><rect fill="#6C6" x="8" y="5" width="3" height="15" rx="1"/><rect fill="#222" x="16" width="3" height="20" rx="1"/></g></symbol>
<symbol id="sql" viewBox="-0.5 -0.5 42 42"><path fill="none" stroke="currentColor" stroke-width="2" stroke-miterlimit="10" d="M28.5 27.5h-12m-7-16l6 6-6 6"/></symbol>
<symbol id="st-user" viewBox="0 0 38 41"><path stroke="null" d="M23.933 28.528c-.146-1.612-.09-2.737-.09-4.21.73-.383 2.038-2.825 2.259-4.888.574-.047 1.479-.607 1.744-2.818.143-1.187-.425-1.855-.771-2.065.934-2.809 2.874-11.499-3.588-12.397C22.822.982 21.119.391 18.906.391c-8.854.163-9.922 6.686-7.981 14.156-.345.21-.913.878-.771 2.065.266 2.211 1.17 2.771 1.744 2.818.22 2.062 1.58 4.505 2.312 4.888 0 1.473.055 2.598-.091 4.21C12.367 33.238.546 31.916 0 41h38c-.545-9.084-12.315-7.762-14.067-12.472z" fill="currentColor"/></symbol>
<symbol id="star-filled" viewBox="0 0 20 20"><path fill-rule="evenodd" clip-rule="evenodd" d="M10 14.391l5.15 3.109-1.367-5.859 4.55-3.942-5.992-.508-2.342-5.525-2.342 5.525-5.991.508 4.55 3.942L4.849 17.5l5.15-3.109z" fill="currentColor"/></symbol>
<symbol id="star-outline" viewBox="0 0 20 20"><path fill-rule="evenodd" clip-rule="evenodd" d="M20.182 7.422l-7.19-.62-2.81-6.62-2.81 6.63-7.19.61 5.46 4.73-1.64 7.03 6.18-3.73 6.18 3.73-1.63-7.03 5.45-4.73zm-10 6.16l-3.76 2.27 1-4.28-3.32-2.88 4.38-.38 1.7-4.03 1.71 4.04 4.38.38-3.32 2.88 1 4.28-3.77-2.28z" fill="currentColor"/></symbol>
<symbol id="star" viewBox="0 0 56 54"><path d="M30.187 5.413l5.407 10.956a2.58 2.58 0 001.944 1.412l12.091 1.757c2.118.308 2.963 2.91 1.431 4.403l-8.749 8.528a2.582 2.582 0 00-.742 2.285l2.065 12.042c.362 2.109-1.852 3.717-3.746 2.722l-10.814-5.685a2.585 2.585 0 00-2.403 0l-10.814 5.685c-1.894.996-4.108-.613-3.746-2.722l2.065-12.042a2.582 2.582 0 00-.742-2.285L4.685 23.94c-1.532-1.494-.687-4.096 1.431-4.403l12.091-1.757a2.58 2.58 0 001.944-1.412l5.407-10.956c.946-1.92 3.682-1.92 4.63 0z" fill="currentColor"/></symbol>
<symbol id="star2" viewBox="0 1 20 19"><path fill="currentColor" fill-rule="evenodd" d="M16.183 20l-2.366-7.203L20 8.435h-7.583L10 1 7.583 8.435H0l6.183 4.362L3.817 20 10 15.54z"/></symbol>
<symbol id="status-info-filled" viewBox="0 0 18 18"><path fill-rule="evenodd" clip-rule="evenodd" d="M8.993 2.25A6.747 6.747 0 002.25 9a6.747 6.747 0 006.743 6.75A6.754 6.754 0 0015.75 9a6.754 6.754 0 00-6.757-6.75zm.007 6c.412 0 .75.338.75.75v3c0 .412-.338.75-.75.75a.752.752 0 01-.75-.75V9c0-.412.338-.75.75-.75zm0-1.5a.75.75 0 100-1.5.75.75 0 000 1.5z" fill="currentColor"/></symbol>
<symbol id="status-info-outlined" viewBox="0 0 18 18"><path fill-rule="evenodd" clip-rule="evenodd" d="M9 1.5a7.5 7.5 0 110 15 7.5 7.5 0 010-15zM9 3a6 6 0 100 12A6 6 0 009 3zm-.938 9.563V8.436a.937.937 0 111.876 0v4.126a.937.937 0 11-1.876 0zm1.876-7.126a.937.937 0 11-1.875 0 .937.937 0 011.874 0z" fill="currentColor"/></symbol>
<symbol id="streak-outlined" viewBox="0 0 40 40"><g clip-path="url(#clip0_2502_4748)" fill-rule="evenodd" clip-rule="evenodd" fill="currentColor"><path d="M24.891 36.826c1.45-.739 2.868-2.122 6.34-5.595 3.473-3.472 4.856-4.89 5.595-6.34a10.774 10.774 0 000-9.782c-.739-1.45-2.122-2.868-5.595-6.34-3.472-3.473-4.89-4.856-6.34-5.595a10.774 10.774 0 00-9.782 0c-1.45.739-2.868 2.122-6.34 5.595-3.473 3.472-4.856 4.89-5.595 6.34a10.774 10.774 0 000 9.782c.739 1.45 2.122 2.868 5.595 6.34 3.472 3.473 4.89 4.856 6.34 5.595a10.774 10.774 0 009.782 0zM1.392 25.799c.919 1.803 2.6 3.484 5.962 6.847 3.363 3.362 5.044 5.043 6.847 5.962a12.774 12.774 0 0011.598 0c1.803-.919 3.484-2.6 6.847-5.962 3.362-3.363 5.043-5.044 5.962-6.847a12.774 12.774 0 000-11.598c-.919-1.803-2.6-3.484-5.962-6.847-3.363-3.362-5.044-5.043-6.847-5.962a12.774 12.774 0 00-11.598 0c-1.803.919-3.484 2.6-6.847 5.962-3.362 3.363-5.043 5.044-5.962 6.847a12.774 12.774 0 000 11.598z"/><path d="M21.398 9.083a1 1 0 01.594 1.041L21.132 17H29a1 1 0 01.768 1.64l-10 12a1 1 0 01-1.76-.764l.86-6.876H11a1 1 0 01-.768-1.64l10-12a1 1 0 011.166-.277zM13.135 21H20a1 1 0 01.992 1.124l-.577 4.616 6.45-7.74H20a1 1 0 01-.992-1.124l.577-4.616-6.45 7.74z"/></g><defs><clipPath id="clip0_2502_4748"><path fill="currentColor" d="M0 0h40v40H0z"/></clipPath></defs></symbol>
<symbol id="streak-record-outlined" viewBox="0 0 40 40"><g clip-path="url(#clip0_2502_4261)" fill="currentColor"><path fill-rule="evenodd" clip-rule="evenodd" d="M24.891 36.826c1.45-.739 2.868-2.122 6.34-5.595 3.473-3.472 4.856-4.89 5.595-6.34a10.774 10.774 0 000-9.782c-.739-1.45-2.122-2.868-5.595-6.34-3.472-3.473-4.89-4.856-6.34-5.595a10.774 10.774 0 00-9.782 0c-1.45.739-2.868 2.122-6.34 5.595-3.473 3.472-4.856 4.89-5.595 6.34a10.774 10.774 0 000 9.782c.739 1.45 2.122 2.868 5.595 6.34 3.472 3.473 4.89 4.856 6.34 5.595a10.774 10.774 0 009.782 0zM1.392 25.799c.919 1.803 2.6 3.484 5.962 6.847 3.363 3.362 5.044 5.043 6.847 5.962a12.774 12.774 0 0011.598 0c1.803-.919 3.484-2.6 6.847-5.962 3.362-3.363 5.043-5.044 5.962-6.847a12.774 12.774 0 000-11.598c-.919-1.803-2.6-3.484-5.962-6.847-3.363-3.362-5.044-5.043-6.847-5.962a12.774 12.774 0 00-11.598 0c-1.803.919-3.484 2.6-6.847 5.962-3.362 3.363-5.043 5.044-5.962 6.847a12.774 12.774 0 000 11.598z"/><path d="M29 13h-3v-1a1 1 0 00-1-1H15a1 1 0 00-1 1v1h-3a1 1 0 00-1 1v3c0 4.31 1.799 6.91 4.819 7.012A6 6 0 0019 26.91V29h-2v2h6v-2h-2v-2.09a6.01 6.01 0 004.181-2.898C28.201 23.91 30 21.31 30 17v-3a1 1 0 00-1-1zm-17 4v-2h2v6.83c-1.784-.752-2-3.531-2-4.83zm8 8c-2.206 0-4-1.794-4-4v-8h8v8c0 2.206-1.794 4-4 4zm6-3.17V15h2v2c0 1.299-.216 4.078-2 4.83z"/></g><defs><clipPath id="clip0_2502_4261"><path fill="currentColor" d="M0 0h40v40H0z"/></clipPath></defs></symbol>
<symbol id="streak-record" viewBox="0 0 40 40"><g clip-path="url(#clip0_2502_6040)"><path fill-rule="evenodd" clip-rule="evenodd" d="M1.392 25.8c.919 1.802 2.6 3.483 5.962 6.846 3.363 3.362 5.044 5.043 6.847 5.962a12.774 12.774 0 0011.598 0c1.803-.919 3.484-2.6 6.847-5.962 3.362-3.363 5.043-5.044 5.962-6.847a12.774 12.774 0 000-11.598c-.919-1.803-2.6-3.484-5.962-6.847-3.363-3.362-5.044-5.043-6.847-5.962a12.774 12.774 0 00-11.598 0c-1.803.919-3.484 2.6-6.847 5.962-3.362 3.363-5.043 5.044-5.962 6.847a12.774 12.774 0 000 11.598zM26 14h3a1 1 0 011 1v3c0 4.3-1.82 6.9-4.82 7A5.999 5.999 0 0121 27.91V30h2v2h-6v-2h2v-2.09A6.001 6.001 0 0114.82 25C11.8 24.91 10 22.31 10 18v-3a1 1 0 011-1h3v-1a1 1 0 011-1h10a1 1 0 011 1v1zm-14 2v2c0 1.3.22 4.08 2 4.83V16h-2zm14 0v6.83c1.78-.75 2-3.53 2-4.83v-2h-2z" fill="currentColor"/></g><defs><clipPath id="clip0_2502_6040"><path fill="currentColor" d="M0 0h40v40H0z"/></clipPath></defs></symbol>
<symbol id="streak" viewBox="0 0 40 40"><g clip-path="url(#clip0_2502_601)"><path fill-rule="evenodd" clip-rule="evenodd" d="M1.392 25.8c.919 1.802 2.6 3.483 5.962 6.846 3.363 3.362 5.044 5.043 6.847 5.962a12.774 12.774 0 0011.598 0c1.803-.919 3.484-2.6 6.847-5.962 3.362-3.363 5.043-5.044 5.962-6.847a12.774 12.774 0 000-11.598c-.919-1.803-2.6-3.484-5.962-6.847-3.363-3.362-5.044-5.043-6.847-5.962a12.774 12.774 0 00-11.598 0c-1.803.919-3.484 2.6-6.847 5.962-3.362 3.363-5.043 5.044-5.962 6.847a12.774 12.774 0 000 11.598zm20.6-15.676a1 1 0 00-1.76-.764l-10 12A1 1 0 0011 23h7.867l-.86 6.876a1 1 0 001.761.764l10-12A1 1 0 0029 17h-7.867l.86-6.876z" fill="currentColor"/></g><defs><clipPath id="clip0_2502_601"><path fill="currentColor" d="M0 0h40v40H0z"/></clipPath></defs></symbol>
<symbol id="string" viewBox="0 0 42 42"><path fill="none" stroke="currentColor" stroke-width="2" stroke-miterlimit="10" d="M21 19h10m-20 3h8"/></symbol>
<symbol id="switcher" viewBox="0 0 20 20"><path fill-rule="evenodd" clip-rule="evenodd" d="M10 5a1 1 0 011 1v8a1 1 0 11-2 0V6a1 1 0 011-1z" fill="#000"/></symbol>
<symbol id="table" viewBox="0 0 42 42"><g fill="none" stroke="currentColor" stroke-width="2" stroke-miterlimit="10"><path d="M30 14v13M12 14v13M18 18v9M24 18v9M11 13h20M11 18h20M11 23h20M11 28h20"/></g></symbol>
<symbol id="table2" viewBox="0 0 17 16"><path fill="currentColor" d="M1.7 15.3h13.51c.937 0 1.699-.762 1.699-1.7V1.7c0-.938-.762-1.7-1.7-1.7H1.7C.762 0 0 .762 0 1.7v11.9c0 .938.762 1.7 1.7 1.7zm0-1.7V9.35h3.4v4.25H1.7zm8.5-10.2v4.25H6.8V3.4h3.4zm-5.1 0v4.25H1.7V3.4h3.4zm1.7 10.2V9.35h3.4v4.25H6.8zm5.1 0V9.35h3.31v4.25H11.9zm3.309-5.95H11.9V3.4h3.309v4.25z" fill-rule="evenodd"/></symbol>
<symbol id="text" viewBox="0 0 42 42"><path fill="none" stroke="currentColor" stroke-width="2" stroke-miterlimit="10" d="M11 13h15M11 23h14m-14 5h17M11 18h20"/></symbol>
<symbol id="thumbs-up" viewBox="0 0 20 20"><path d="M20 9.503c0 .415 0 1.276-.555 1.605.124.272.12.623.114.991l-.001.235c0 .773-.321 1.37-.825 1.617.126.276.123.634.12 1.01l-.001.292c.004.457-.156.885-.45 1.203a1.54 1.54 0 01-.376.298c.255.385.265.95.27 1.227.008.45-.151.877-.449 1.203-.3.327-.717.517-1.145.517l-3.743-.002h-.01c-.005.002-.01.002-.015.002H8.023a1.65 1.65 0 00-.132.006 2.077 2.077 0 01-.178.008.858.858 0 01-.254-.034 1.483 1.483 0 01-.404-.22h-.001l-.084-.057c-.179-.119-.353-.245-.527-.37l-.141-.103a.535.535 0 00-.313-.1h-.49V9.984l.538-.362c.258-.173.42-.473.591-.789l.775-1.4C7.93 6.483 8.46 5.53 8.99 4.58l.022-.041a.22.22 0 00.015-.033c.003-.012.003-.052.003-.076l-.003-3.08c0-.399.312-.715.618-.973A1.53 1.53 0 0111.222.11c.435.169.98.467 1.096.932.144.57.288 1.141.422 1.715l.057.236c.086.359.175.73.212 1.11.053.549-.467 2.777-.775 3.774l6.388-.011c.836 0 1.378.643 1.378 1.637zm-20 .976c0-.74.589-1.342 1.313-1.342h2.873c.288 0 .552.099.768.26v10.346a1.28 1.28 0 01-.768.257H1.313C.589 20 0 19.399 0 18.659v-8.18z" fill="currentColor" fill-rule="evenodd"/></symbol>
<symbol id="timer" viewBox="0 0 14 12"><path fill-rule="evenodd" clip-rule="evenodd" d="M10.333 0H7.667v1.333h2.666V0zM3.667 3.333H1v1.334h2.667V3.333zm6 1.334H8.333v2.666h1.334V4.667zm-6 4H1V10h2.667V8.667zM2.993 6H.333v1.333h2.66V6zm10.479-3.529L12.43 3.513a4.644 4.644 0 011.237 3.154A4.672 4.672 0 019 11.333a4.672 4.672 0 01-4.667-4.666A4.672 4.672 0 019 2c.875 0 1.69.247 2.39.667l1.14-1.138.942.942zM5.667 6.667A3.337 3.337 0 009 10a3.337 3.337 0 003.333-3.333A3.337 3.337 0 009 3.333a3.337 3.337 0 00-3.333 3.334z" fill="currentColor"/></symbol>
<symbol id="trik" viewBox="0 0 42 42"><path fill="currentColor" d="M12 10v5h7v16h5V15h7v-5H12zm17 3h-7v16h-1V13h-7v-1h15v1z"/></symbol>
<symbol id="unpin" viewBox="0 0 18 18"><path fill="currentColor" d="M7 4.879L5.843 3.72V2.196l-.901.003.002-1.983 8.185-.02-.002 1.982-.902.002-.004 4.48a5.457 5.457 0 012.265 3.769l-1.93.005L8 5.88V2H7v2.879zm2.604 6.847l-.003 4.998c0 .526-.261.96-.58.96-.316 0-.577-.43-.576-.957l.005-6.156 1.154 1.155zm-1.28-1.28l-4.754.011c.158-1.24.73-2.35 1.574-3.192l3.18 3.18zM2.12 1.413L15.646 14.94l-.707.707L1.414 2.121l.707-.707z"/></symbol>
<symbol id="up-arrow" viewBox="-0.51 -0.479 24 16"><path fill="none" stroke="currentColor" stroke-width="4" stroke-miterlimit="10" d="M21.49 12.52l-10-10-10 10"/></symbol>
<symbol id="upload" viewBox="0 0 14 14"><path fill-rule="evenodd" clip-rule="evenodd" d="M13 8.333a.667.667 0 00-.667.667v2.667a.667.667 0 01-.666.666H2.333a.667.667 0 01-.666-.666V9A.667.667 0 00.333 9v2.667a2 2 0 002 2h9.334a2 2 0 002-2V9A.667.667 0 0013 8.333zM6.527.527a.667.667 0 01.22-.14.627.627 0 01.506 0c.082.031.157.079.22.14l2.667 2.666a.67.67 0 01-.947.947L7.667 2.607V9a.667.667 0 11-1.334 0V2.607L4.807 4.14a.67.67 0 11-.947-.947L6.527.527z" fill="currentColor"/></symbol>
<symbol id="user" viewBox="2 2 14 14"><path d="M10.616 12.129c-.053-.58-.033-.985-.033-1.515.263-.138.734-1.017.814-1.76.206-.017.532-.218.628-1.014.051-.428-.153-.668-.278-.744.336-1.011 1.035-4.139-1.292-4.463C10.216 2.213 9.603 2 8.806 2c-3.187.059-3.572 2.407-2.873 5.096-.124.076-.329.316-.278.744.096.796.422.997.628 1.014.079.742.569 1.622.833 1.76 0 .53.019.935-.033 1.515-.631 1.696-4.886 1.22-5.083 4.49h13.68c-.196-3.27-4.433-2.794-5.064-4.49z" fill-rule="evenodd" fill="currentColor"/></symbol>
<symbol id="video-pin" viewBox="0 0 19 22"><path d="M0 1.21C0 .107.762-.32 1.699.258l15.743 9.696c.938.577.937 1.515 0 2.092L1.7 21.74C.76 22.318 0 21.89 0 20.786V1.211z" fill="currentColor" fill-rule="evenodd"/></symbol>
<symbol id="video" viewBox="0 0 42 42"><path fill="none" stroke="currentColor" stroke-width="2" d="M12 12h17m-17 4h2m3 0h2m3 0h2m3 0h2m0 13H12m17-4h-2m-3 0h-2m-3 0h-2m-3 0h-2"/></symbol>
<symbol id="warning-circle" viewBox="0 0 12 12"><path fill-rule="evenodd" clip-rule="evenodd" d="M5.994 0A5.997 5.997 0 000 6c0 3.312 2.682 6 5.994 6A6.003 6.003 0 0012 6c0-3.312-2.688-6-6.006-6zM6 2.667c.367 0 .667.3.667.666V6c0 .367-.3.667-.667.667A.669.669 0 015.333 6V3.333c0-.366.3-.666.667-.666zM5.333 8v1.333h1.334V8H5.333z" fill="#9F0F38"/></symbol>
<symbol id="warning-outline" viewBox="0 0 24 24"><g fill="currentColor" fill-rule="evenodd"><path d="M10.14 1.24L.123 18.767C-.806 20.394.131 22 2.005 22h19.99c1.875 0 2.813-1.602 1.881-3.232L13.86 1.24c-.932-1.631-2.786-1.635-3.72 0zm1.984.992L22.139 19.76c.154.269.193.246-.066.24H2.005c-.341 0-.311.051-.145-.24L11.877 2.233l.106-.201c.032-.05.037.016.142.2z" fill-rule="nonzero"/><g transform="matrix(1 0 0 -1 10.75 18.75)"><path d="M0 11V5.5a1.25 1.25 0 112.5 0V11A1.25 1.25 0 110 11z"/><circle cx="1.25" cy="1.5" r="1.25"/></g></g></symbol>
<symbol id="warning" viewBox="0 0 20 20"><path fill="currentColor" fill-rule="evenodd" d="M18.666 19H1.333C.215 19-.235 18.219.309 17.254L9.014 1.831c.547-.969 1.427-.964 1.97 0l8.705 15.423c.547.97.086 1.746-1.023 1.746zm-9.779-7.867a1.112 1.112 0 102.224 0V6.15a1.112 1.112 0 10-2.224 0v4.982zM10 16.298c.615 0 1.112-.504 1.112-1.126 0-.622-.497-1.126-1.112-1.126a1.12 1.12 0 00-1.112 1.126A1.12 1.12 0 0010 16.298z"/></symbol>
<symbol id="website" viewBox="0 0 20 20"><g fill="currentColor" fill-rule="evenodd"><path d="M19.822 9.91C19.822 4.438 15.385 0 9.91 0 4.437 0 0 4.437 0 9.91c0 5.475 4.437 9.912 9.91 9.912 5.475 0 9.912-4.437 9.912-9.911zM2 9.91a7.91 7.91 0 1115.822 0A7.91 7.91 0 012 9.91z"/><path d="M14.193 2.096c-1.577-.796-2.454.184-2.212 1.22.266 1.141-.727 1.156-1.854.965-1.126-.19-1.165 1.347-.435 1.495 4.84.983 3.667 1.527 3.431 1.933-.662 1.14-3.358-1.353-5.068-.502-.28.14-1.087 1.159-.432 2.305.655 1.147 1.926-.367 2.68 1.68.482 1.31.4 3.094.836 3.82.435.724 1.452.41 1.533.403 1.318-.134.488-2.943 1.318-3.543 1.495-1.082-.152-1.93.203-2.36.356-.43 1.092.635 1.732 0 1.615-1.602 1.06.768 2.949.229 0 0-3.493-7.047-4.68-7.645zM1.611 6.694c2.4 3.253-.834.803 1.765 4.768.128.195 1.683.087 1.334 1.813-.35 1.727-1.561.499-2.461 1.006l-.638-7.587zM6.298 18.06c1.323 0 1.904-.797 1.904-.797s.919-.716 1.762 0c.99.842 2.69-.243 2.874 1.018l-6.54-.221zM3.523 3.73c0 1.035 1.07.345 1.52.605.45.26.319.908 1.002.85 1.726-.144.909-2.586.832-3.559L3.523 3.73z"/></g></symbol>
<symbol id="wrong-colorless" viewBox="0 0 24 24"><path d="M12 0C5.4 0 0 5.4 0 12s5.4 12 12 12 12-5.4 12-12S18.6 0 12 0zm6 16.32L16.32 18 12 13.68 7.68 18 6 16.32 10.32 12 6 7.68 7.68 6 12 10.32 16.32 6 18 7.68 13.68 12 18 16.32z" fill="currentColor" fill-rule="evenodd"/></symbol>
<symbol id="wrong" viewBox="0 0 24 24"><path d="M12 0C5.4 0 0 5.4 0 12s5.4 12 12 12 12-5.4 12-12S18.6 0 12 0zm6 16.32L16.32 18 12 13.68 7.68 18 6 16.32 10.32 12 6 7.68 7.68 6 12 10.32 16.32 6 18 7.68 13.68 12 18 16.32z" fill="#C52026" fill-rule="evenodd"/></symbol>
</svg>
